<?xml version="1.0" encoding="utf-8"?>
<!-- Generator: Adobe Illustrator 19.2.0, SVG Export Plug-In . SVG Version: 6.00 Build 0)  -->
<!DOCTYPE svg PUBLIC "-//W3C//DTD SVG 1.1//EN" "http://www.w3.org/Graphics/SVG/1.1/DTD/svg11.dtd">
<svg version="1.1" id="Layer_1" xmlns="http://www.w3.org/2000/svg" xmlns:xlink="http://www.w3.org/1999/xlink" x="0px" y="0px"
	 width="50px" height="50px" viewBox="0 0 50 50" style="enable-background:new 0 0 50 50;" xml:space="preserve">
<style type="text/css">
	.st0{clip-path:url(#SVGID_2_);fill:#4E4C4D;}
</style>
<g>
	<defs>
		<rect fill="currentColor" id="SVGID_1_" x="7.5" y="3.4" width="35.1" height="43.1"/>
	</defs>
	<clipPath fill="currentColor" id="SVGID_2_">
		<use xlink:href="#SVGID_1_"  style="overflow:visible;"/>
	</clipPath>
	<path fill="currentColor" class="st0" d="M29.1,27.6c-4.8,2.8-11,1.3-13.9-3.3c-2.9-4.6-1.3-10.6,3.4-13.4c4.8-2.8,11-1.3,13.9,3.3
		C35.4,18.8,33.9,24.8,29.1,27.6 M41.9,40.6l-6.4-10.3c5.1-5,6.3-12.9,2.3-19.2c-4.7-7.5-14.7-9.9-22.5-5.4
		C7.6,10.2,5.2,19.9,9.8,27.4c3.9,6.3,11.7,9,18.7,7L35,44.7c1.2,1.9,3.7,2.5,5.6,1.3C42.5,44.9,43.1,42.5,41.9,40.6"/>
</g>
</svg>
