<?xml version="1.0" encoding="utf-8"?>
<!-- Generator: Adobe Illustrator 19.2.0, SVG Export Plug-In . SVG Version: 6.00 Build 0)  -->
<!DOCTYPE svg PUBLIC "-//W3C//DTD SVG 1.1//EN" "http://www.w3.org/Graphics/SVG/1.1/DTD/svg11.dtd">
<svg version="1.1" id="Layer_1" xmlns="http://www.w3.org/2000/svg" xmlns:xlink="http://www.w3.org/1999/xlink" x="0px" y="0px"
	 width="50px" height="50px" viewBox="0 0 50 50" style="enable-background:new 0 0 50 50;" xml:space="preserve">
<path fill="currentColor" class="st0" d="M28.5,32.6c0.1-0.1,0.2-0.3,0.4-0.5c2.1-2.1,4.2-4.2,6.3-6.3c1.3-1.3,3.3-1.3,4.6,0s1.3,3.3,0,4.6
	c-4.2,4.2-8.3,8.4-12.5,12.5c-1.3,1.4-3.3,1.4-4.7,0c-4.1-4.1-8.3-8.3-12.4-12.4c-0.6-0.7-1-1.4-1-2.3c0-1.4,0.8-2.6,2-3.1
	c1.2-0.6,2.6-0.3,3.6,0.7c2.1,2.1,4.2,4.2,6.3,6.3c0.2,0.1,0.4,0.3,0.6,0.5c0-0.4,0-0.6,0-0.8c0-5.9,0-11.9,0-17.8c0-1.7,0-3.3,0-5
	c0-1.9,1.6-3.3,3.5-3.2c1.8,0.1,3.1,1.5,3.1,3.4c0,7.5,0,15.1,0,22.7c0,0.2,0,0.4,0,0.6C28.4,32.6,28.5,32.6,28.5,32.6z"/>
</svg>
