<?xml version="1.0" encoding="utf-8"?>
<!-- Generator: Adobe Illustrator 19.2.0, SVG Export Plug-In . SVG Version: 6.00 Build 0)  -->
<!DOCTYPE svg PUBLIC "-//W3C//DTD SVG 1.1//EN" "http://www.w3.org/Graphics/SVG/1.1/DTD/svg11.dtd">
<svg version="1.1" id="Layer_1" xmlns="http://www.w3.org/2000/svg" xmlns:xlink="http://www.w3.org/1999/xlink" x="0px" y="0px"
	 width="50px" height="50px" viewBox="0 0 50 50" style="enable-background:new 0 0 50 50;" xml:space="preserve">
<path fill="currentColor" class="st0" d="M32.7,28.2c-0.2,0-0.4,0-0.6,0c-7.6,0-15.2,0-22.7,0c-1.9,0-3.3-1.3-3.4-3.1c-0.1-1.9,1.3-3.5,3.2-3.5
	c1.7,0,3.3,0,5,0c5.9,0,11.9,0,17.8,0c0.2,0,0.4,0,0.8,0c-0.2-0.2-0.4-0.4-0.5-0.6c-2.1-2.1-4.2-4.2-6.3-6.3c-1-1-1.3-2.4-0.7-3.6
	c0.5-1.2,1.7-2,3.1-2c0.9,0,1.6,0.4,2.3,1c4.1,4.1,8.3,8.3,12.4,12.4c1.4,1.4,1.4,3.4,0,4.7c-4.1,4.2-8.3,8.3-12.5,12.5
	c-1.3,1.3-3.3,1.3-4.6,0c-1.3-1.3-1.3-3.3,0-4.6c2.1-2.1,4.2-4.2,6.3-6.3c0.2-0.2,0.4-0.3,0.5-0.4C32.8,28.4,32.8,28.3,32.7,28.2z"
	/>
</svg>
