<?xml version="1.0" encoding="utf-8"?>
<!-- Generator: Adobe Illustrator 19.0.0, SVG Export Plug-In . SVG Version: 6.00 Build 0)  -->
<!DOCTYPE svg PUBLIC "-//W3C//DTD SVG 1.1//EN" "http://www.w3.org/Graphics/SVG/1.1/DTD/svg11.dtd">
<svg version="1.1" id="Layer_1" xmlns="http://www.w3.org/2000/svg" xmlns:xlink="http://www.w3.org/1999/xlink" x="0px" y="0px"
	 width="36px" height="36px" viewBox="-273 379 36 36" enable-background="new -273 379 36 36" xml:space="preserve">
<g>
	<g>
		<path fill="currentColor" d="M-255,415c-9.9,0-18-8.1-18-18s8.1-18,18-18s18,8.1,18,18S-245.1,415-255,415z M-255,382
			c-8.3,0-15,6.7-15,15s6.7,15,15,15c8.3,0,15-6.7,15-15S-246.7,382-255,382z"/>
	</g>
</g>
<polygon fill="currentColor" points="-253.6,386.5 -256.6,386.5 -256.5,395.5 -265.5,395.4 -265.5,398.4 -256.5,398.5 -256.4,407.5 
	-253.4,407.5 -253.5,398.5 -244.5,398.6 -244.5,395.6 -253.5,395.5 "/>
</svg>
