<?xml version="1.0" encoding="utf-8"?>
<!-- Generator: Adobe Illustrator 19.2.0, SVG Export Plug-In . SVG Version: 6.00 Build 0)  -->
<!DOCTYPE svg PUBLIC "-//W3C//DTD SVG 1.1//EN" "http://www.w3.org/Graphics/SVG/1.1/DTD/svg11.dtd">
<svg version="1.1" id="Layer_1" xmlns="http://www.w3.org/2000/svg" xmlns:xlink="http://www.w3.org/1999/xlink" x="0px" y="0px"
	 width="50px" height="50px" viewBox="0 0 50 50" style="enable-background:new 0 0 50 50;" xml:space="preserve">
<path fill="currentColor" class="st0" d="M28.3,17.3c0,0.2,0,0.4,0,0.6c0,7.6,0,15.2,0,22.7c0,1.9-1.3,3.3-3.1,3.4c-1.9,0.1-3.5-1.3-3.5-3.2
	c0-1.7,0-3.3,0-5c0-5.9,0-11.9,0-17.8c0-0.2,0-0.4,0-0.8c-0.2,0.2-0.4,0.4-0.6,0.5c-2.1,2.1-4.2,4.2-6.3,6.3c-1,1-2.4,1.3-3.6,0.7
	c-1.2-0.5-2-1.7-2-3.1c0-0.9,0.4-1.6,1-2.3c4.1-4.1,8.3-8.3,12.4-12.4c1.4-1.4,3.4-1.4,4.7,0c4.2,4.1,8.3,8.3,12.5,12.5
	c1.3,1.3,1.3,3.3,0,4.6s-3.3,1.3-4.6,0c-2.1-2.1-4.2-4.2-6.3-6.3c-0.2-0.2-0.3-0.4-0.4-0.5C28.5,17.2,28.4,17.2,28.3,17.3z"/>
</svg>
