<?xml version="1.0" encoding="utf-8"?>
<!-- Generator: Adobe Illustrator 19.2.0, SVG Export Plug-In . SVG Version: 6.00 Build 0)  -->
<!DOCTYPE svg PUBLIC "-//W3C//DTD SVG 1.1//EN" "http://www.w3.org/Graphics/SVG/1.1/DTD/svg11.dtd">
<svg version="1.1" id="Layer_1" xmlns="http://www.w3.org/2000/svg" xmlns:xlink="http://www.w3.org/1999/xlink" x="0px" y="0px"
	 width="100px" height="100px" viewBox="0 0 100 100" style="enable-background:new 0 0 100 100;" xml:space="preserve">
<g>
	<path fill="currentColor" class="st0" d="M31.8,85.6c0.7,0.3,1.5,0.3,2.2,0l14.9-7.2c0.7-0.3,1.5-0.3,2.2,0L66,85.6c0.7,0.3,1.5,0.3,2.2,0L85.9,77
		c1-0.5,1.6-1.5,1.6-2.6V17.1c0-2.1-2-3.5-3.8-2.6l-15.5,7.5c-0.7,0.3-1.5,0.3-2.2,0l-14.9-7.2c-0.7-0.3-1.5-0.3-2.2,0L34,21.9
		c-0.7,0.3-1.5,0.3-2.2,0l-15.5-7.5c-1.8-0.9-3.8,0.5-3.8,2.6v57.3c0,1.1,0.6,2.2,1.6,2.6L31.8,85.6z M67.7,30.3
		c0-0.3,0.2-0.5,0.4-0.7L80,23.9c0.4-0.2,1,0.1,1,0.7v20.9c0,0.3-0.2,0.5-0.4,0.7l-11.9,5.7c-0.4,0.2-1-0.1-1-0.7V30.3z M67.7,54.5
		c0-0.3,0.2-0.5,0.4-0.7L80,48.1c0.4-0.2,1,0.1,1,0.7v22.5c0,0.3-0.2,0.5-0.4,0.7l-11.9,5.7c-0.4,0.2-1-0.1-1-0.7V54.5z M50.6,23.3
		c0-0.5,0.5-0.9,1-0.7l14.3,6.9c0.2,0.1,0.4,0.4,0.4,0.7v4.6l-1.8-1c-0.3-0.2-0.7,0-0.9,0.3c-0.2,0.4,0,0.8,0.3,1l2.4,1.3
		c0,0,0,0,0,0v14.7c0,0.5-0.5,0.9-1,0.7L51,44.9c-0.2-0.1-0.4-0.4-0.4-0.7V23.3z M50.6,47.5c0-0.5,0.5-0.9,1-0.7l14.3,6.9
		c0.2,0.1,0.4,0.4,0.4,0.7v22.5c0,0.5-0.5,0.9-1,0.7L51,70.6c-0.2-0.1-0.4-0.4-0.4-0.7V47.5z M33.6,30.3c0-0.3,0.2-0.5,0.4-0.7
		l14.4-6.9c0.4-0.2,1,0.1,1,0.7v20.9c0,0.3-0.2,0.5-0.4,0.7l-14.4,6.9c-0.4,0.2-1-0.1-1-0.7V30.3z M33.6,54.4c0-0.3,0.2-0.5,0.4-0.7
		l14.4-6.9c0.4-0.2,1,0.1,1,0.7V70c0,0.3-0.2,0.5-0.4,0.7l-14.4,6.9c-0.4,0.2-1-0.1-1-0.7V54.4z M19.1,24.6c0-0.5,0.5-0.9,1-0.7
		l11.8,5.7c0.2,0.1,0.4,0.4,0.4,0.7v21c0,0.5-0.5,0.9-1,0.7l-11.8-5.7c-0.2-0.1-0.4-0.4-0.4-0.7V24.6z M19.1,48.7
		c0-0.5,0.5-0.9,1-0.7l5.2,2.5v2.6c0,0.4,0.3,0.7,0.7,0.7c0.4,0,0.7-0.3,0.7-0.7v-2l5.3,2.5c0.2,0.1,0.4,0.4,0.4,0.7V67l-2.1,1
		c-0.4,0.1-0.5,0.5-0.4,0.9c0.1,0.3,0.4,0.5,0.6,0.5c0.1,0,0.2,0,0.2,0c0.1,0,0.2-0.1,0.2-0.1l1.4-0.7v8.4c0,0.5-0.5,0.9-1,0.7
		l-11.8-5.7c-0.2-0.1-0.4-0.4-0.4-0.7V48.7z"/>
	<polygon fill="currentColor" class="st0" points="22.4,40.5 23.7,41.9 25.9,39.5 28.1,41.9 29.4,40.5 27.2,38.2 29.4,35.8 28.1,34.4 25.9,36.8 
		23.7,34.4 22.4,35.8 24.6,38.2 	"/>
	<polygon fill="currentColor" class="st0" points="72.1,66.8 74.3,64.4 76.5,66.8 77.9,65.4 75.6,63 77.9,60.6 76.5,59.2 74.3,61.6 72.1,59.2 70.8,60.6 
		73,63 70.8,65.4 	"/>
	<path fill="currentColor" class="st0" d="M59.1,61.9c0.1,0,0.2,0,0.3-0.1c0.3-0.2,0.4-0.6,0.2-1c-0.2-0.4-0.4-0.9-0.4-1.4v-1c0-0.4-0.3-0.7-0.7-0.7
		c-0.4,0-0.7,0.3-0.7,0.7v1c0,0.7,0.2,1.5,0.5,2.1C58.7,61.8,58.9,61.9,59.1,61.9z"/>
	<path fill="currentColor" class="st0" d="M41.4,62.2C41.5,62.2,41.5,62.2,41.4,62.2c0.4,0,0.7-0.3,0.7-0.7c0-0.1,0-0.2,0-0.4v-2.6
		c0-0.4-0.3-0.7-0.7-0.7c-0.4,0-0.7,0.3-0.7,0.7v2.6c0,0.1,0,0.2,0,0.2C40.8,61.8,41.1,62.2,41.4,62.2z"/>
	<path fill="currentColor" class="st0" d="M41.5,47.7c0.4,0,0.7-0.3,0.7-0.7v-2.9c0-0.4-0.3-0.7-0.7-0.7c-0.4,0-0.7,0.3-0.7,0.7V47
		C40.8,47.4,41.1,47.7,41.5,47.7z"/>
	<path fill="currentColor" class="st0" d="M41.5,40.5c0.4,0,0.7-0.3,0.7-0.7v-0.5c0-0.6,0.2-1.3,0.6-1.8c0.2-0.3,0.2-0.8-0.1-1c-0.3-0.2-0.7-0.2-0.9,0.1
		c-0.6,0.8-0.9,1.7-0.9,2.6v0.5C40.8,40.1,41.1,40.5,41.5,40.5z"/>
	<path fill="currentColor" class="st0" d="M41.5,55c0.4,0,0.7-0.3,0.7-0.7v-2.9c0-0.4-0.3-0.7-0.7-0.7c-0.4,0-0.7,0.3-0.7,0.7v2.9
		C40.8,54.6,41.1,55,41.5,55z"/>
	<path fill="currentColor" class="st0" d="M36.6,66.5c0.1,0,0.2,0,0.3-0.1l2.5-1.1c0.3-0.2,0.5-0.6,0.4-0.9c-0.1-0.4-0.5-0.5-0.9-0.4l-2.5,1.1
		c-0.3,0.2-0.5,0.6-0.4,0.9C36.1,66.3,36.3,66.5,36.6,66.5z"/>
	<path fill="currentColor" class="st0" d="M26.7,68.3c0.2,0,0.3-0.1,0.4-0.2c0.3-0.3,0.3-0.7,0.1-1c-0.4-0.5-0.6-1.1-0.6-1.8v-0.4c0-0.4-0.3-0.7-0.7-0.7
		c-0.4,0-0.7,0.3-0.7,0.7v0.4c0,1,0.3,2,0.9,2.8C26.3,68.2,26.5,68.3,26.7,68.3z"/>
	<path fill="currentColor" class="st0" d="M25.9,61.2c0.4,0,0.7-0.3,0.7-0.7v-2.9c0-0.4-0.3-0.7-0.7-0.7c-0.4,0-0.7,0.3-0.7,0.7v2.9
		C25.2,60.9,25.5,61.2,25.9,61.2z"/>
	<path fill="currentColor" class="st0" d="M25.9,42.3c-0.4,0-0.7,0.3-0.7,0.7V46c0,0.4,0.3,0.7,0.7,0.7c0.4,0,0.7-0.3,0.7-0.7v-2.9
		C26.6,42.7,26.3,42.3,25.9,42.3z"/>
	<path fill="currentColor" class="st0" d="M45.7,35.6c0.1,0,0.2,0,0.3-0.1l2.5-1.2c0.3-0.2,0.5-0.6,0.3-1c-0.2-0.4-0.6-0.5-0.9-0.4l-2.5,1.2
		c-0.3,0.2-0.5,0.6-0.3,1C45.2,35.4,45.4,35.6,45.7,35.6z"/>
	<path fill="currentColor" class="st0" d="M68.7,45.4c0.1,0,0.2,0,0.3,0c1,0,1.9-0.4,2.7-1.1c0.3-0.3,0.3-0.7,0-1c-0.3-0.3-0.7-0.3-1-0.1
		c-0.5,0.5-1.3,0.8-2,0.7c-0.4,0-0.7,0.3-0.7,0.7C68,45.1,68.3,45.4,68.7,45.4z"/>
	<path fill="currentColor" class="st0" d="M69.5,63.7c0.4,0,0.7-0.3,0.7-0.7c0-0.4-0.3-0.7-0.7-0.7h-0.1c-0.4,0-0.6,0.3-0.6,0.7
		C68.7,63.4,69.1,63.7,69.5,63.7z"/>
	<path fill="currentColor" class="st0" d="M59.4,43.3c-0.3-0.2-0.7,0-0.9,0.3c-0.3,0.6-0.4,1.3-0.4,2v1.2c0,0.4,0.3,0.7,0.7,0.7c0.4,0,0.7-0.3,0.7-0.7
		v-1.2c0-0.5,0.1-0.9,0.3-1.3C59.8,43.9,59.7,43.5,59.4,43.3z"/>
	<path fill="currentColor" class="st0" d="M69.9,38.5l0.3,0.2c0.6,0.3,1,0.8,1.3,1.5c0.1,0.3,0.4,0.5,0.6,0.5c0.1,0,0.2,0,0.3-0.1
		c0.3-0.1,0.5-0.6,0.4-0.9c-0.4-1-1-1.7-1.9-2.2l-0.3-0.2c-0.3-0.2-0.7,0-0.9,0.3C69.4,37.8,69.6,38.3,69.9,38.5z"/>
	<path fill="currentColor" class="st0" d="M51.9,32.6c0.1,0,0.2,0,0.3-0.1l2.5-1.2c0.3-0.2,0.5-0.6,0.3-1C54.8,30,54.4,29.8,54,30l-2.5,1.2
		c-0.3,0.2-0.5,0.6-0.3,1C51.4,32.4,51.6,32.6,51.9,32.6z"/>
	<path fill="currentColor" class="st0" d="M62.6,63.7h2.7c0.4,0,0.7-0.3,0.7-0.7c0-0.4-0.3-0.7-0.7-0.7h-2.7c-0.4,0-0.7,0.3-0.7,0.7
		C61.9,63.4,62.2,63.7,62.6,63.7z"/>
	<path fill="currentColor" class="st0" d="M58.7,54.8c0.4,0,0.7-0.3,0.7-0.7v-2.9c0-0.4-0.3-0.7-0.7-0.7c-0.4,0-0.7,0.3-0.7,0.7V54
		C58,54.4,58.3,54.8,58.7,54.8z"/>
	<path fill="currentColor" class="st0" d="M62.4,42.8c0.3,0,0.5,0.1,0.8,0.2l1.6,0.8c0.1,0,0.2,0.1,0.3,0.1c0.3,0,0.5-0.2,0.6-0.4c0.2-0.4,0-0.8-0.3-1
		l-1.6-0.8c-0.4-0.2-0.8-0.3-1.2-0.4c-0.4-0.1-0.7,0.2-0.8,0.6C61.7,42.4,62,42.7,62.4,42.8z"/>
	<path fill="currentColor" class="st0" d="M57.9,31.8l2.4,1.3c0.1,0.1,0.2,0.1,0.3,0.1c0.2,0,0.5-0.1,0.6-0.4c0.2-0.4,0-0.8-0.3-1l-2.4-1.3
		c-0.3-0.2-0.7,0-0.9,0.3C57.4,31.2,57.5,31.7,57.9,31.8z"/>
</g>
</svg>
