<?xml version="1.0" encoding="utf-8"?>
<!-- Generator: Adobe Illustrator 19.2.0, SVG Export Plug-In . SVG Version: 6.00 Build 0)  -->
<!DOCTYPE svg PUBLIC "-//W3C//DTD SVG 1.1//EN" "http://www.w3.org/Graphics/SVG/1.1/DTD/svg11.dtd">
<svg version="1.1" id="Layer_1" xmlns="http://www.w3.org/2000/svg" xmlns:xlink="http://www.w3.org/1999/xlink" x="0px" y="0px"
	 width="100px" height="100px" viewBox="0 0 100 100" style="enable-background:new 0 0 100 100;" xml:space="preserve">
<g>
	<path fill="currentColor" class="st0" d="M70.2,15H29.8c-1.7,0-3.1,1.4-3.1,3.1v63.8c0,1.7,1.4,3.1,3.1,3.1h40.4c1.7,0,3.1-1.4,3.1-3.1V18.1
		C73.3,16.4,71.9,15,70.2,15z M50,81.7c-0.9,0-1.6-0.7-1.6-1.6c0-0.9,0.7-1.6,1.6-1.6s1.6,0.7,1.6,1.6C51.6,81,50.9,81.7,50,81.7z
		 M71.8,74.2c0,0.9-0.7,1.6-1.6,1.6H29.8c-0.9,0-1.6-0.7-1.6-1.6v-56c0-0.9,0.7-1.6,1.6-1.6h40.4c0.9,0,1.6,0.7,1.6,1.6V74.2z"/>
</g>
<rect fill="currentColor" x="31.2" y="47.1" class="st0" width="37.6" height="10.8"/>
<rect fill="currentColor" x="31.2" y="60.7" class="st0" width="37.6" height="10.8"/>
<rect fill="currentColor" x="31.2" y="19.9" class="st0" width="37.6" height="10.8"/>
<rect fill="currentColor" x="31.2" y="33.5" class="st0" width="37.6" height="10.8"/>
</svg>
