<?xml version="1.0" encoding="utf-8"?>
<!-- Generator: Adobe Illustrator 19.2.0, SVG Export Plug-In . SVG Version: 6.00 Build 0)  -->
<!DOCTYPE svg PUBLIC "-//W3C//DTD SVG 1.1//EN" "http://www.w3.org/Graphics/SVG/1.1/DTD/svg11.dtd">
<svg version="1.1" id="Layer_1" xmlns="http://www.w3.org/2000/svg" xmlns:xlink="http://www.w3.org/1999/xlink" x="0px" y="0px"
	 width="50px" height="50px" viewBox="0 0 50 50" style="enable-background:new 0 0 50 50;" xml:space="preserve">
<g>
	<path fill="currentColor" class="st0" d="M13.2,7.3c0.4,0.1,0.8,0.2,1.1,0.4c0.3,0.2,0.5,0.4,0.6,0.7c0.2,0.4,0.4,2.2,0.5,2.7c0.2,0,16.9,0,25.2,0
		c0.8,0,1.5,0.2,1.9,1c0.3,0.6,0.2,1.2,0.1,1.8c-0.3,2.3-1.5,10.6-1.8,12.6c-0.1,0.9-0.8,1.5-1.8,1.6c-0.1,0-0.3,0-0.5,0
		c-2.7,0-5.3,0-8,0c-2.7,0-5.3,0-8,0c-1.5,0-2.9,0-4.4,0c0.1,0.6,0.2,2.4,0.3,3.1c2.4,0,17.1,0,18.4,0c0.4,0,0.8,0.1,1.2,0.2
		c0.8,0.4,1.1,1.2,0.9,2.1c-0.2,0.8-0.9,1.4-1.7,1.5c-1.9,0-15.2,0-19.9,0c-0.7,0-1.3-0.2-1.8-0.7c-0.5-0.6-0.6-1.4-0.7-2.1
		c-0.3-2.2-3.1-20.2-3.2-20.9c-0.6,0-2.5,0-2.9-0.1C8,10.9,7.5,10.3,7.3,9.6c0-0.3,0-0.5,0-0.8C7.4,8.4,7.6,8,7.9,7.7
		c0.4-0.3,0.8-0.4,1.2-0.5C10.5,7.3,11.9,7.3,13.2,7.3C13.4,7.3,11.9,7.3,13.2,7.3z M17.6,24.2c0,0,13.3,0,19.9,0
		c0.4-3.1,0.9-6.2,1.3-9.4c-7.6,0-15.1,0-22.7,0C16.5,18,17.1,21.1,17.6,24.2C17.6,24.2,17.1,21.1,17.6,24.2z"/>
	<ellipse fill="currentColor" class="st0" cx="19" cy="39.7" rx="3" ry="3"/>
	<ellipse fill="currentColor" class="st0" cx="35.8" cy="39.7" rx="3" ry="3"/>
</g>
</svg>
