<?xml version="1.0" encoding="utf-8"?>
<!-- Generator: Adobe Illustrator 19.2.0, SVG Export Plug-In . SVG Version: 6.00 Build 0)  -->
<!DOCTYPE svg PUBLIC "-//W3C//DTD SVG 1.1//EN" "http://www.w3.org/Graphics/SVG/1.1/DTD/svg11.dtd">
<svg version="1.1" id="Layer_1" xmlns="http://www.w3.org/2000/svg" xmlns:xlink="http://www.w3.org/1999/xlink" x="0px" y="0px"
	 width="100px" height="100px" viewBox="0 0 100 100" style="enable-background:new 0 0 100 100;" xml:space="preserve">
<path fill="currentColor" class="st0" d="M81.4,65.4C83.7,60.8,85,55.5,85,50c0-19.3-15.7-35-35-35S15,30.7,15,50s15.7,35,35,35c5,0,9.7-1,13.9-2.9l0,0
	l19,2.9l-1.4-19.8L81.4,65.4z M36.6,52.9c-1.4,1.4-3.7,1.4-5.1,0c-1.4-1.4-1.4-3.6,0-5c1.4-1.4,3.6-1.4,5,0
	C38,49.2,38,51.5,36.6,52.9z M52.5,52.6c-1.4,1.4-3.7,1.4-5.1,0c-1.4-1.4-1.4-3.6,0-5c1.4-1.4,3.6-1.4,5,0
	C53.9,49,53.9,51.3,52.5,52.6z M68.5,52.9c-1.4,1.4-3.7,1.4-5.1,0c-1.4-1.4-1.4-3.6,0-5c1.4-1.4,3.6-1.4,5,0
	C69.8,49.2,69.8,51.5,68.5,52.9z"/>
</svg>
