<?xml version="1.0" encoding="utf-8"?>
<!-- Generator: Adobe Illustrator 19.2.0, SVG Export Plug-In . SVG Version: 6.00 Build 0)  -->
<!DOCTYPE svg PUBLIC "-//W3C//DTD SVG 1.1//EN" "http://www.w3.org/Graphics/SVG/1.1/DTD/svg11.dtd">
<svg version="1.1" id="Layer_1" xmlns="http://www.w3.org/2000/svg" xmlns:xlink="http://www.w3.org/1999/xlink" x="0px" y="0px"
	 width="100px" height="100px" viewBox="0 0 100 100" style="enable-background:new 0 0 100 100;" xml:space="preserve">
<style type="text/css">
	.st0{fill:#454545;}
	.st1{fill:none;}
</style>
<g>
	<path fill="currentColor" class="st0" d="M43.9,85c-13.8-0.1-25.7-9.8-28.4-23.4c-3.1-15.4,6.8-30.5,22.2-33.8c3.1-0.7,6.3-0.8,9.5-0.4
		c0.3,0,0.5-0.1,0.7-0.3c2.3-2.3,4.5-4.5,6.8-6.8c3.9-3.9,8.6-5.6,14-5.3c4.2,0.3,7.9,2,10.9,4.9c3,2.9,4.8,6.3,5.3,10.4
		C85.6,36,84,41,80,45.1c-2.4,2.5-4.8,4.8-7.2,7.3c-0.2,0.2-0.3,0.4-0.3,0.7c0.7,8.1-1.4,15.4-6.7,21.6c-4.6,5.4-10.4,8.7-17.5,9.8
		C46.8,84.8,45.3,84.9,43.9,85z M43.8,79c12.6,0,23-10.2,23-22.8c0-12.8-10.3-23.2-23-23.2c-12.7,0-22.9,10.2-23,22.9
		C20.8,68.7,31.1,79,43.8,79z M70.9,46c0.2-0.1,0.3-0.2,0.4-0.4c1.5-1.5,2.9-2.9,4.4-4.4c2.9-2.9,4-6.4,3.4-10.5
		c-0.9-5.4-5.8-9.7-11.3-9.9c-3.4-0.1-6.4,1.1-8.8,3.5c-1.5,1.5-2.9,2.9-4.4,4.4c-0.1,0.1-0.2,0.2-0.3,0.4
		C62.1,32.4,67.7,38,70.9,46z"/>
	<path fill="currentColor" class="st0" d="M43.9,47.1c4.9,0,8.9,4,8.9,8.9c0,4.9-4,8.9-8.9,8.8c-4.9,0-8.9-4-8.9-8.9C35.1,51,39,47.1,43.9,47.1z
		 M43.9,50c-3.3,0-6,2.7-6,6c0,3.3,2.7,6,6,6c3.3,0,5.9-2.7,5.9-5.9C49.9,52.7,47.2,50,43.9,50z"/>
	<path fill="currentColor" class="st0" d="M28,54c1.2,0,2.2,1,2.2,2.2c0,1.2-1,2.2-2.2,2.2c-1.2,0-2.2-1-2.2-2.2C25.8,54.9,26.8,54,28,54z"/>
	<path fill="currentColor" class="st0" d="M59.4,58.4c-1.2,0-2.2-0.9-2.2-2.2c0-1.2,1-2.2,2.2-2.2c1.2,0,2.2,1,2.2,2.2C61.6,57.4,60.7,58.4,59.4,58.4z"
		/>
	<path fill="currentColor" class="st0" d="M43.7,42.5c-1.2,0-2.2-0.9-2.2-2.2c0-1.2,1-2.2,2.2-2.2c1.2,0,2.2,1,2.2,2.2C45.9,41.6,45,42.5,43.7,42.5z"/>
	<path fill="currentColor" class="st0" d="M32.8,47.2c-1.2,0-2.2-1-2.2-2.2c0-1.2,1-2.2,2.2-2.2c1.2,0,2.2,1,2.2,2.2C35,46.3,34,47.2,32.8,47.2z"/>
	<path fill="currentColor" class="st0" d="M57.2,67.3c0,1.2-1,2.2-2.2,2.2c-1.2,0-2.2-1-2.2-2.2c0-1.2,1-2.2,2.2-2.2C56.2,65.1,57.2,66,57.2,67.3z"/>
	<path fill="currentColor" class="st0" d="M43.7,69.6c1.2,0,2.2,1,2.2,2.2c0,1.2-1,2.2-2.2,2.2c-1.2,0-2.2-1-2.2-2.2C41.5,70.6,42.5,69.6,43.7,69.6z"/>
	<path fill="currentColor" class="st0" d="M32.9,65c1.2,0,2.2,1,2.2,2.2c0,1.2-1,2.2-2.2,2.2c-1.2,0-2.2-1-2.2-2.2C30.7,66,31.7,65,32.9,65z"/>
	<path fill="currentColor" class="st0" d="M55.1,42.8c1.2,0,2.2,1,2.2,2.2c0,1.2-1,2.2-2.2,2.2c-1.2,0-2.2-1-2.2-2.2C52.9,43.7,53.9,42.8,55.1,42.8z"/>
</g>
</svg>
