<?xml version="1.0" encoding="utf-8"?>
<!-- Generator: Adobe Illustrator 19.2.0, SVG Export Plug-In . SVG Version: 6.00 Build 0)  -->
<!DOCTYPE svg PUBLIC "-//W3C//DTD SVG 1.1//EN" "http://www.w3.org/Graphics/SVG/1.1/DTD/svg11.dtd">
<svg version="1.1" id="Layer_1" xmlns="http://www.w3.org/2000/svg" xmlns:xlink="http://www.w3.org/1999/xlink" x="0px" y="0px"
	 width="50px" height="50px" viewBox="0 0 50 50" enable-background="new 0 0 50 50" xml:space="preserve">
<g>
	<path fill="currentColor" d="M22.1,26.3c0,0.1,0,0.1,0.1,0.3c0.8,0.8,1.6,1.6,2.4,2.4c0.5,0.5,0.5,1.3,0,1.8s-1.3,0.5-1.8,0c-1.6-1.6-3.2-3.2-4.8-4.8
		c-0.5-0.5-0.5-1.3,0-1.8c1.6-1.6,3.2-3.2,4.8-4.8c0.3-0.2,0.6-0.4,0.9-0.4c0.5,0,1,0.3,1.2,0.8s0.1,1-0.3,1.4
		c-0.8,0.8-1.6,1.6-2.4,2.4c0,0-0.1,0.1-0.2,0.2c0.1,0,0.2,0,0.3,0c2.3,0,4.6,0,6.9,0c0.6,0,1.2,0,1.9,0s1.2,0.6,1.2,1.3
		s-0.6,1.2-1.3,1.2c-2.8,0-5.8,0-8.7,0C22.3,26.3,22.2,26.3,22.1,26.3S22,26.4,22.1,26.3z"/>
	<g>
		<path fill="currentColor" d="M7,25c0-9.9,8.1-18,18-18s18,8.1,18,18s-8.1,18-18,18S7,34.9,7,25z M10,25c0,8.3,6.7,15,15,15s15-6.7,15-15s-6.7-15-15-15
			S10,16.7,10,25z"/>
	</g>
</g>
</svg>
