<?xml version="1.0" encoding="utf-8"?>
<!-- Generator: Adobe Illustrator 19.2.0, SVG Export Plug-In . SVG Version: 6.00 Build 0)  -->
<!DOCTYPE svg PUBLIC "-//W3C//DTD SVG 1.1//EN" "http://www.w3.org/Graphics/SVG/1.1/DTD/svg11.dtd">
<svg version="1.1" id="Layer_1" xmlns="http://www.w3.org/2000/svg" xmlns:xlink="http://www.w3.org/1999/xlink" x="0px" y="0px"
	 width="50px" height="50px" viewBox="0 0 50 50" style="enable-background:new 0 0 50 50;" xml:space="preserve">
<path fill="currentColor" class="st0" d="M17.3,28.4c0.1,0.1,0.3,0.2,0.5,0.4c2.1,2.1,4.2,4.2,6.3,6.3c1.3,1.3,1.3,3.3,0,4.6c-1.3,1.3-3.3,1.3-4.6,0
	c-4.2-4.2-8.4-8.3-12.5-12.5c-1.4-1.3-1.4-3.3,0-4.7c4.1-4.1,8.3-8.3,12.4-12.4c0.7-0.6,1.4-1,2.3-1c1.4,0,2.6,0.8,3.1,2
	c0.6,1.2,0.3,2.6-0.7,3.6c-2.1,2.1-4.2,4.2-6.3,6.3c-0.1,0.2-0.3,0.4-0.5,0.6c0.4,0,0.6,0,0.8,0c5.9,0,11.9,0,17.8,0
	c1.7,0,3.3,0,5,0c1.9,0,3.3,1.6,3.2,3.5c-0.1,1.8-1.5,3.1-3.4,3.1c-7.5,0-15.1,0-22.7,0c-0.2,0-0.4,0-0.6,0
	C17.3,28.3,17.3,28.4,17.3,28.4z"/>
</svg>
