<?xml version="1.0" encoding="utf-8"?>
<!-- Generator: Adobe Illustrator 19.2.0, SVG Export Plug-In . SVG Version: 6.00 Build 0)  -->
<!DOCTYPE svg PUBLIC "-//W3C//DTD SVG 1.1//EN" "http://www.w3.org/Graphics/SVG/1.1/DTD/svg11.dtd">
<svg version="1.1" id="Layer_1" xmlns="http://www.w3.org/2000/svg" xmlns:xlink="http://www.w3.org/1999/xlink" x="0px" y="0px"
	 width="40px" height="40px" viewBox="0 0 40 40" style="enable-background:new 0 0 40 40;" xml:space="preserve">
<g>
	<g>
		<g>
			<path fill="currentColor" d="M32.7,32.7c-7,7-18.5,7-25.5,0s-7-18.5,0-25.5s18.5-7,25.5,0S39.7,25.7,32.7,32.7z M9.4,9.4c-5.9,5.9-5.9,15.3,0,21.2
				s15.3,5.9,21.2,0c5.9-5.9,5.9-15.3,0-21.2S15.3,3.5,9.4,9.4z"/>
		</g>
	</g>
	<polygon fill="currentColor" points="13.6,11.6 11.4,13.7 17.9,20 11.4,26.3 13.6,28.4 20,22.1 26.4,28.4 28.6,26.3 22.1,20 28.6,13.7 26.4,11.6 
		20,17.9 	"/>
</g>
</svg>
