<?xml version="1.0" encoding="utf-8"?>
<!-- Generator: Adobe Illustrator 19.2.0, SVG Export Plug-In . SVG Version: 6.00 Build 0)  -->
<!DOCTYPE svg PUBLIC "-//W3C//DTD SVG 1.1//EN" "http://www.w3.org/Graphics/SVG/1.1/DTD/svg11.dtd">
<svg version="1.1" id="Layer_1" xmlns="http://www.w3.org/2000/svg" xmlns:xlink="http://www.w3.org/1999/xlink" x="0px" y="0px"
	 width="100px" height="100px" viewBox="0 0 100 100" style="enable-background:new 0 0 100 100;" xml:space="preserve">
<g>
	<path fill="currentColor" class="st0" d="M59.5,53.5c-0.4-0.2-0.8,0-1,0.4c-0.1,0.2-0.2,0.4-0.3,0.6c-0.2,0.4-0.1,0.8,0.3,1c0.1,0.1,0.2,0.1,0.3,0.1
		c0.3,0,0.5-0.1,0.6-0.4c0.1-0.2,0.2-0.4,0.3-0.7C60,54.1,59.8,53.7,59.5,53.5z"/>
	<path fill="currentColor" class="st0" d="M55.8,57.4c-0.2,0.1-0.3,0.3-0.5,0.4c-0.3,0.2-0.4,0.7-0.2,1c0.1,0.2,0.4,0.3,0.6,0.3c0.1,0,0.3,0,0.4-0.1
		c0.2-0.1,0.4-0.3,0.6-0.4c0.3-0.2,0.4-0.7,0.1-1C56.5,57.2,56.1,57.2,55.8,57.4z"/>
	<path fill="currentColor" class="st0" d="M58.9,46c0.1,0,0.2,0,0.3-0.1c0.4-0.2,0.5-0.6,0.3-1c-0.1-0.2-0.2-0.4-0.4-0.7c-0.2-0.3-0.7-0.5-1-0.2
		c-0.3,0.2-0.4,0.7-0.2,1c0.1,0.2,0.2,0.4,0.3,0.6C58.4,45.9,58.7,46,58.9,46z"/>
	<path fill="currentColor" class="st0" d="M40,48.9c0,0,0.1,0,0.1,0c0.3,0,0.6-0.2,0.7-0.6c0-0.2,0.1-0.4,0.1-0.6c0.1-0.4-0.1-0.8-0.5-0.9
		c-0.4-0.1-0.8,0.1-0.9,0.5c-0.1,0.2-0.1,0.5-0.2,0.7C39.3,48.5,39.6,48.8,40,48.9z"/>
	<path fill="currentColor" class="st0" d="M45.8,41.5c0.1,0,0.2,0,0.3-0.1c0.2-0.1,0.4-0.2,0.6-0.2c0.4-0.1,0.6-0.6,0.4-0.9c-0.1-0.4-0.6-0.6-0.9-0.4
		c-0.2,0.1-0.5,0.2-0.7,0.3c-0.4,0.2-0.5,0.6-0.4,1C45.3,41.3,45.5,41.5,45.8,41.5z"/>
	<path fill="currentColor" class="st0" d="M50.5,40.6c0.2,0,0.4,0,0.6,0.1c0,0,0.1,0,0.1,0c0.4,0,0.7-0.3,0.7-0.6c0.1-0.4-0.2-0.8-0.6-0.8
		c-0.2,0-0.5-0.1-0.7-0.1c-0.4,0-0.7,0.3-0.8,0.7C49.8,40.2,50.1,40.6,50.5,40.6z"/>
	<path fill="currentColor" class="st0" d="M59.3,49.4c0,0.2,0,0.4,0,0.7l0.7,0.1l0.7-0.1c0-0.3,0-0.5,0-0.8c0-0.4-0.4-0.7-0.8-0.7
		C59.6,48.6,59.3,49,59.3,49.4z"/>
	<path fill="currentColor" class="st0" d="M43,56.2c-0.3-0.3-0.7-0.3-1-0.1c-0.3,0.3-0.3,0.7-0.1,1c0.2,0.2,0.3,0.4,0.5,0.5c0.1,0.1,0.3,0.2,0.5,0.2
		c0.2,0,0.4-0.1,0.5-0.2c0.3-0.3,0.3-0.7,0-1C43.2,56.5,43.1,56.4,43,56.2z"/>
	<path fill="currentColor" class="st0" d="M42.6,44.2c0.1-0.2,0.3-0.3,0.4-0.5c0.3-0.3,0.2-0.8-0.1-1c-0.3-0.3-0.8-0.2-1,0.1c-0.2,0.2-0.3,0.4-0.5,0.6
		c-0.2,0.3-0.2,0.8,0.1,1c0.1,0.1,0.3,0.2,0.4,0.2C42.3,44.5,42.5,44.4,42.6,44.2z"/>
	<path fill="currentColor" class="st0" d="M40.9,52.2c-0.1-0.4-0.5-0.6-0.9-0.5c-0.4,0.1-0.6,0.5-0.5,0.9c0.1,0.2,0.1,0.5,0.2,0.7
		c0.1,0.3,0.4,0.5,0.7,0.5c0.1,0,0.1,0,0.2,0c0.4-0.1,0.6-0.5,0.5-0.9C41,52.6,40.9,52.4,40.9,52.2z"/>
	<path fill="currentColor" class="st0" d="M51.7,59.3c-0.2,0-0.4,0.1-0.6,0.1c-0.4,0-0.7,0.4-0.6,0.8c0,0.4,0.4,0.6,0.7,0.6c0,0,0.1,0,0.1,0
		c0.3,0,0.5-0.1,0.7-0.1c0.4-0.1,0.6-0.5,0.6-0.8C52.4,59.5,52.1,59.2,51.7,59.3z"/>
	<path fill="currentColor" class="st0" d="M54.8,41.9c0.2,0.1,0.4,0.2,0.5,0.4c0.1,0.1,0.3,0.1,0.4,0.1c0.2,0,0.5-0.1,0.6-0.3c0.2-0.3,0.1-0.8-0.2-1
		c-0.2-0.1-0.4-0.3-0.6-0.4c-0.3-0.2-0.8-0.1-1,0.3C54.3,41.3,54.4,41.7,54.8,41.9z"/>
	<path fill="currentColor" class="st0" d="M47.2,59c-0.2-0.1-0.4-0.1-0.6-0.2c-0.4-0.1-0.8,0-0.9,0.4c-0.1,0.4,0,0.8,0.4,0.9c0.2,0.1,0.5,0.2,0.7,0.2
		c0.1,0,0.1,0,0.2,0c0.3,0,0.6-0.2,0.7-0.5C47.8,59.5,47.6,59.1,47.2,59z"/>
	<path fill="currentColor" class="st0" d="M12.5,84.1c0,1.4,1.1,2.6,2.5,2.6H85c1.4,0,2.5-1.1,2.5-2.6V15.9c0-1.4-1.1-2.6-2.5-2.6H15
		c-1.4,0-2.5,1.1-2.5,2.6V19c0,1.4,1.1,2.6,2.5,2.6h63c0.7,0,1.3,0.6,1.3,1.3v54.2c0,0.7-0.6,1.3-1.3,1.3H15c-1.4,0-2.5,1.1-2.5,2.6
		V84.1z"/>
	<ellipse fill="currentColor" class="st0" cx="50" cy="50" rx="6.5" ry="6.5"/>
	<path fill="currentColor" class="st0" d="M61.2,69.3v2.3c0,0.7,0.6,1.2,1.2,1.2l10.6-0.6c0.6,0,1.1-0.5,1.1-1.2v-1c0-0.6-0.5-1.1-1.1-1.2l-10.6-0.6
		C61.8,68.1,61.2,68.6,61.2,69.3z"/>
	<path fill="currentColor" class="st0" d="M66.1,49.2c-0.4-8.5-7.4-15.3-16-15.3C41.2,33.8,34,41.1,34,50c0,8.9,7.2,16.2,16.1,16.2
		c8.3,0,15.1-6.3,16-14.4c0,0,0.1,0,0.1,0l4-1v-0.7L66.1,49.2C66.1,49.2,66.1,49.2,66.1,49.2z M50,64.2c-7.8,0-14.1-6.4-14.1-14.2
		c0-7.8,6.3-14.2,14.1-14.2c7.8,0,14.1,6.4,14.1,14.2C64.1,57.8,57.8,64.2,50,64.2z"/>
	<path fill="currentColor" class="st0" d="M20.5,24.8h-6.3c-0.7,0-1.3,0.6-1.3,1.3v19.8c0,0.7,0.6,1.3,1.3,1.3h6.3c0.7,0,1.3-0.6,1.3-1.3v-5.5
		c0-0.6,0.4-1.1,1-1.2l4.1-1.1c0.6-0.1,1-0.7,1-1.2v-3c0-0.6-0.4-1.1-1-1.2l-4.1-1.1c-0.6-0.1-1-0.7-1-1.2v-4.2
		C21.8,25.4,21.2,24.8,20.5,24.8z"/>
	<path fill="currentColor" class="st0" d="M12.9,74.2c0,0.7,0.6,1.3,1.3,1.3h6.3c0.7,0,1.3-0.6,1.3-1.3v-4.2c0-0.6,0.4-1.1,1-1.2l4.1-1.1
		c0.6-0.1,1-0.7,1-1.2v-3c0-0.6-0.4-1.1-1-1.2l-4.1-1.1c-0.6-0.1-1-0.7-1-1.2v-5.5c0-0.7-0.6-1.3-1.3-1.3h-6.3
		c-0.7,0-1.3,0.6-1.3,1.3V74.2z"/>
</g>
</svg>
