<?xml version="1.0" encoding="utf-8"?>
<!-- Generator: Adobe Illustrator 19.2.0, SVG Export Plug-In . SVG Version: 6.00 Build 0)  -->
<!DOCTYPE svg PUBLIC "-//W3C//DTD SVG 1.1//EN" "http://www.w3.org/Graphics/SVG/1.1/DTD/svg11.dtd">
<svg version="1.1" id="Layer_1" xmlns="http://www.w3.org/2000/svg" xmlns:xlink="http://www.w3.org/1999/xlink" x="0px" y="0px"
	 width="100px" height="100px" viewBox="0 0 100 100" style="enable-background:new 0 0 100 100;" xml:space="preserve">
<g>
	<path fill="currentColor" class="st0" d="M18.6,42.3c0.7,0.4,1.5,0.6,2.4,0.3l12.8-3.2l0,0c1.4-0.3,2.4-1.9,2.5-3.3v-4.8c0-0.3,0.2-0.5,0.3-0.8l0.6-0.4
		c3.5-2.3,9.2-2.1,13.2-2.1c4,0.1,8.9,0.2,12.3,2.6c0.2,0.2,0.3,0.5,0.4,0.8v4.1c0,1.4,0.9,2.9,2.3,3.3l12.9,4.1
		c1.8,0.4,3.5-0.5,3.5-2.5l0.1-11.1c0.1-1.1-0.4-2.4-1.1-3.3c-8-8-20.1-10-31-10c-11.5,0-22.3,2.1-31.1,9.7
		c-0.7,0.9-1.2,2.1-1.1,3.3l-0.1,11C17.5,40.9,17.8,41.7,18.6,42.3z"/>
	<g>
		<path fill="currentColor" class="st0" d="M50,46.5c-20.7,0-37.5,16.8-37.5,37.5h75C87.5,63.3,70.7,46.5,50,46.5z M49.7,77.5c-6.7,0-12.2-5.5-12.2-12.2
			S43,53.1,49.7,53.1s12.2,5.5,12.2,12.2S56.4,77.5,49.7,77.5z"/>
	</g>
</g>
<ellipse fill="currentColor" transform="matrix(0.9183 -0.3958 0.3958 0.9183 -21.7868 25.0063)" class="st0" cx="49.7" cy="65.3" rx="4.1" ry="4.1"/>
</svg>
