<?xml version="1.0" encoding="utf-8"?>
<!-- Generator: Adobe Illustrator 19.2.0, SVG Export Plug-In . SVG Version: 6.00 Build 0)  -->
<!DOCTYPE svg PUBLIC "-//W3C//DTD SVG 1.1//EN" "http://www.w3.org/Graphics/SVG/1.1/DTD/svg11.dtd">
<svg version="1.1" id="Layer_1" xmlns="http://www.w3.org/2000/svg" xmlns:xlink="http://www.w3.org/1999/xlink" x="0px" y="0px"
	 width="100px" height="100px" viewBox="0 0 100 100" style="enable-background:new 0 0 100 100;" xml:space="preserve">
<g>
	<g>
		<path fill="currentColor" class="st0" d="M31.2,44.8l9-9c2.4-2.4,2.4-6.3,0-8.7L28,17.1l-4.2,4.2l4.6,4.6c2.4,2.4,3.1,5.6,0.7,8
			c-2.4,2.4-5.6,1.7-8-0.7l-4.6-4.6l-4.1,4.1l10,12.1C24.9,47.2,28.8,47.2,31.2,44.8z"/>
		<g>
			<path fill="currentColor" class="st0" d="M85.7,26.5l-8.3-8.3c-2.4-2.4-6.3-2.4-8.7,0l-8.3,8.3c-2.4,2.4-2.4,6.3,0,8.7l8.3,8.3c2.4,2.4,6.3,2.4,8.7,0
				l8.3-8.3C88.1,32.8,88.1,28.9,85.7,26.5z M75.7,29.7l-3.8,3.8c-0.6,0.6-1.6,0.6-2.2,0c-0.6-0.6-0.6-1.6,0-2.2l3.8-3.8
				c0.6-0.6,1.6-0.6,2.2,0C76.3,28.1,76.3,29.1,75.7,29.7z"/>
		</g>
	</g>
	<g>
		<path fill="currentColor" class="st0" d="M77,71.5L59.4,54.3l8.5-8.6l-9.6-9.6l-8.8,8.6l-7.6-7.4l-9.6,9.6l7.3,7.5L23.2,70.4c-2.4,2.4-2.4,6.3,0,8.7
			l1.6,1.6c2.4,2.4,6.3,2.4,8.7,0l16-16.3l17.2,17.5c2.4,2.4,6.3,2.4,8.7,0l1.6-1.6C79.4,77.9,79.4,73.9,77,71.5z M31.9,77
			c-1.4,1.4-3.6,1.4-5,0c-1.4-1.4-1.4-3.6,0-5c1.4-1.4,3.6-1.4,5,0C33.3,73.3,33.3,75.6,31.9,77z M73.3,78.2c-1.4,1.4-3.6,1.4-5,0
			c-1.4-1.4-1.4-3.6,0-5c1.4-1.4,3.6-1.4,5,0C74.6,74.6,74.6,76.8,73.3,78.2z"/>
	</g>
</g>
</svg>
