<?xml version="1.0" encoding="utf-8"?>
<!-- Generator: Adobe Illustrator 19.2.0, SVG Export Plug-In . SVG Version: 6.00 Build 0)  -->
<!DOCTYPE svg PUBLIC "-//W3C//DTD SVG 1.1//EN" "http://www.w3.org/Graphics/SVG/1.1/DTD/svg11.dtd">
<svg version="1.1" id="Layer_1" xmlns="http://www.w3.org/2000/svg" xmlns:xlink="http://www.w3.org/1999/xlink" x="0px" y="0px"
	 width="50px" height="50px" viewBox="0 0 50 50" style="enable-background:new 0 0 50 50;" xml:space="preserve">
<g>
	<path fill="currentColor" d="M27.9,26.3c-0.1,0-0.2,0-0.2,0c-2.9,0-5.9,0-8.7,0c-0.7,0-1.3-0.5-1.3-1.2c0-0.7,0.5-1.3,1.2-1.3c0.7,0,1.3,0,1.9,0
		c2.3,0,4.6,0,6.9,0c0.1,0,0.2,0,0.3,0c-0.1-0.1-0.2-0.2-0.2-0.2c-0.8-0.8-1.6-1.6-2.4-2.4c-0.4-0.4-0.5-0.9-0.3-1.4
		c0.2-0.5,0.7-0.8,1.2-0.8c0.3,0,0.6,0.2,0.9,0.4c1.6,1.6,3.2,3.2,4.8,4.8c0.5,0.5,0.5,1.3,0,1.8c-1.6,1.6-3.2,3.2-4.8,4.8
		c-0.5,0.5-1.3,0.5-1.8,0s-0.5-1.3,0-1.8c0.8-0.8,1.6-1.6,2.4-2.4C27.9,26.4,27.9,26.4,27.9,26.3C28,26.4,28,26.3,27.9,26.3z"/>
	<g>
		<path fill="currentColor" d="M25,43c-9.9,0-18-8.1-18-18S15.1,7,25,7s18,8.1,18,18S34.9,43,25,43z M25,10c-8.3,0-15,6.7-15,15s6.7,15,15,15
			s15-6.7,15-15S33.3,10,25,10z"/>
	</g>
</g>
</svg>
