<?xml version="1.0" encoding="utf-8"?>
<!-- Generator: Adobe Illustrator 19.2.0, SVG Export Plug-In . SVG Version: 6.00 Build 0)  -->
<!DOCTYPE svg PUBLIC "-//W3C//DTD SVG 1.1//EN" "http://www.w3.org/Graphics/SVG/1.1/DTD/svg11.dtd">
<svg version="1.1" id="Layer_1" xmlns="http://www.w3.org/2000/svg" xmlns:xlink="http://www.w3.org/1999/xlink" x="0px" y="0px"
	 width="50px" height="50px" viewBox="0 0 50 50" style="enable-background:new 0 0 50 50;" xml:space="preserve">
<g>
	<g>
		<path fill="currentColor" class="st0" d="M25,36.1C25,36.1,25,36.1,25,36.1c-1.5,0-3-0.6-4.1-1.7c-2.2-2.2-2.2-5.9,0-8.1l0,0c1.1-1.1,2.5-1.7,4.1-1.7
			c0,0,0,0,0,0c1.5,0,3,0.6,4.1,1.7c1.1,1.1,1.7,2.5,1.7,4.1c0,1.5-0.6,3-1.7,4.1C28,35.5,26.5,36.1,25,36.1z M25,27.3
			c-0.8,0-1.6,0.3-2.2,0.9v0c-1.2,1.2-1.2,3.2,0,4.4c0.6,0.6,1.4,0.9,2.2,0.9c0,0,0,0,0,0c0.8,0,1.6-0.3,2.2-0.9
			c0.6-0.6,0.9-1.3,0.9-2.2c0-0.8-0.3-1.6-0.9-2.2C26.6,27.6,25.8,27.3,25,27.3C25,27.3,25,27.3,25,27.3z"/>
	</g>
	<path fill="currentColor" class="st0" d="M39.3,29.3c-0.3-4.1-2.1-7.4-5.2-10c-0.1-0.1-0.2-0.2-0.2-0.4c0-1.7,0-3.4,0-5.1c-0.1-2.9-1.2-5.2-3.5-6.9
		c-1.6-1.3-3.5-1.8-5.5-1.8c-2.1,0-4,0.7-5.6,2.1c-2,1.8-3.1,4.1-3.1,6.8c0,1.6,0,3.2,0,4.8c0,0.1,0,0.3-0.2,0.4
		c-1.3,1-2.3,2.2-3.2,3.5c-4.2,6.6-2.4,15.4,4.1,19.8c5.7,3.8,13.3,3.1,18.2-1.8c0.5-0.6,1-1.1,1.4-1.7
		C38.7,36.1,39.6,32.9,39.3,29.3z M19.2,14c0-1.7,0.6-3.2,1.9-4.3c2-1.9,5.2-2.1,7.4-0.5C30.1,10.3,31,12,31,14c0,1,0,2.1,0,3.1
		c0,0.1,0,0.2,0,0.3c-3.9-1.7-7.9-1.7-11.8-0.1c0-0.1,0-0.2,0-0.2C19.2,16,19.2,15,19.2,14z M33.1,38.6c-4.5,4.5-11.8,4.5-16.2,0
		c-4.4-4.5-4.4-11.7,0-16.2c4.5-4.5,11.8-4.5,16.2,0.1C37.6,26.9,37.5,34.1,33.1,38.6z"/>
</g>
</svg>
