<?xml version="1.0" encoding="utf-8"?>
<!-- Generator: Adobe Illustrator 19.2.0, SVG Export Plug-In . SVG Version: 6.00 Build 0)  -->
<!DOCTYPE svg PUBLIC "-//W3C//DTD SVG 1.1//EN" "http://www.w3.org/Graphics/SVG/1.1/DTD/svg11.dtd">
<svg version="1.1" id="Layer_1" xmlns="http://www.w3.org/2000/svg" xmlns:xlink="http://www.w3.org/1999/xlink" x="0px" y="0px"
	 width="100px" height="100px" viewBox="0 0 100 100" style="enable-background:new 0 0 100 100;" xml:space="preserve">
<g>
	<path fill="currentColor" class="st0" d="M76.3,23.7C61.6,8.9,37.8,8.8,23.3,23.3C8.8,37.8,8.9,61.6,23.7,76.3c14.7,14.7,38.5,14.9,53.1,0.4
		C91.2,62.2,91.1,38.4,76.3,23.7z M23.5,64.1c-6.3-11.5-4.7-26.1,4.9-35.7c9.6-9.6,24.2-11.2,35.7-4.9c1.7,0.9,2.1,3.2,0.7,4.6
		l-7.2,7.2c-0.4,0.4-1.1,0.5-1.7,0.2c-5.7-2.8-12.8-1.8-17.5,2.9s-5.6,11.7-2.9,17.5c0.3,0.6,0.2,1.2-0.2,1.7l-7.2,7.2
		C26.7,66.2,24.4,65.9,23.5,64.1z M56.5,56.5c-3.9,3.9-10.2,3.8-14.1-0.1c-3.9-3.9-4-10.2-0.1-14.1s10.2-3.8,14.1,0.1
		C60.3,46.4,60.4,52.7,56.5,56.5z M64.5,76.7c-8.9,4.7-19.7,4.6-28.7-0.2c-1.7-0.9-2.1-3.2-0.7-4.6l7.7-7.7c0.4-0.4,1-0.5,1.5-0.3
		c3.6,1.3,7.6,1.3,11.1-0.2c0.6-0.2,1.2-0.1,1.6,0.3l8.1,8.1C66.6,73.5,66.3,75.8,64.5,76.7z M72.1,65.2L64,57.1
		c-0.4-0.4-0.5-1.1-0.3-1.6c1.4-3.5,1.5-7.5,0.2-11.1c-0.2-0.5-0.1-1.1,0.3-1.5l7.7-7.7c1.4-1.4,3.7-1,4.6,0.7
		c4.9,9,5,19.8,0.2,28.7C75.8,66.3,73.5,66.6,72.1,65.2z"/>
	<path fill="currentColor" class="st0" d="M44.1,44.1c-2.9,2.9-2.9,7.7,0.1,10.7c3,3,7.8,3,10.7,0.1s2.9-7.7-0.1-10.7C51.8,41.2,47,41.1,44.1,44.1z
		 M53.5,53.5c-2.2,2.2-5.7,2.1-7.9-0.1c-2.2-2.2-2.2-5.8-0.1-7.9c2.2-2.2,5.7-2.1,7.9,0.1C55.6,47.7,55.6,51.3,53.5,53.5z"/>
</g>
</svg>
