<?xml version="1.0" encoding="utf-8"?><!DOCTYPE svg PUBLIC "-//W3C//DTD SVG 1.1//EN" "http://www.w3.org/Graphics/SVG/1.1/DTD/svg11.dtd"><svg xmlns="http://www.w3.org/2000/svg" xmlns:xlink="http://www.w3.org/1999/xlink"><symbol viewBox="0 0 385 235" id="aaa-logo" xmlns="http://www.w3.org/2000/svg"><path fill="currentColor" class="ast0" d="M379.9 12.5c-11-19-69.4-7-142 26.5 3.8 2.9 7.3 6 10.5 9.3 55.8-23.5 99-30.9 107.8-15.6 10.4 18-30.4 61.7-95.4 105.5l.7.8C341 87.1 392.2 33.8 379.9 12.5zM36.1 217.5c-6.4-11.1 6.8-32.1 33-56.8-2.1-.8-4.2-1.5-6.2-2.4-.1 0-.2-.1-.3-.1-2.1-.8-4.1-1.7-6.1-2.6-31.6 29.1-47.6 53.9-40.2 66.9 8.8 15.2 47.8 10.6 100.2-9l-.6-.9c-41.8 14.6-72.6 17.4-79.8 4.9z"/><path fill="currentColor" class="ast0" d="M3.2 90.1c0-45 59-81.6 131.9-81.6C208 8.6 267 45.1 267 90.1s-59 81.6-131.9 81.6c-72.8 0-131.9-36.5-131.9-81.6zM78 26.7l24.8 85h.1l26.4-95.9c-18.7.6-36.2 4.5-51.3 10.9zm49.9 35.1l-13.6 49.8h27.5l-13.9-49.8zm39.1 49.8L190.6 26c-15.2-6.2-32.9-9.9-51.7-10.3l28.1 95.9zm-89.5 0L63.9 61.8l-13.6 49.8h27.2zm156.4 10c6.5-9.6 10.2-20.2 10.2-31.5 0-21.8-13.7-41.4-35.5-55l25.3 86.5zm-28-10L192 61.8l-13.5 49.8h27.4zm2.8 10h-32.9l-2.9 10.5 7.5 25.7c12.8-4 24.2-9.6 33.8-16.5l-5.5-19.7zM90.2 157.8l-9.9-36.2H47.5l-2.8 10.2c11.3 11.3 27 20.4 45.4 26.2l.1-.2zm54.4-36.2h-33l-10.7 39.2c10.8 2.4 22.3 3.8 34.3 3.8 7.2 0 14.3-.5 21.1-1.4l-11.7-41.6zM59.5 36.5C39 50 26.1 69 26.1 90.1c0 11.1 3.6 21.7 10 31.2l23.4-84.8z"/></symbol><symbol id="bull-interactive-logo" viewBox="0 0 400 400" xmlns="http://www.w3.org/2000/svg"><g><path d="M371,371.486H28.023V28.507H371V371.486z M47.164,352.345h304.695V47.648H47.164V352.345z"/></g><g><path d="M231.184,272.441c-0.717,0.717-1.467,1.286-2.25,1.715c-0.787,0.429-1.896,0.643-3.322,0.643h-68.154c-2.003,0-3-0.998-3-3.001V128.202c0-1.999,0.998-3,3-3h68.154c0.998,0,1.929,0.144,2.786,0.429c0.857,0.288,1.785,0.931,2.786,1.929l12.002,12.002c1.143,1.286,1.822,2.324,2.036,3.108c0.215,0.787,0.321,1.607,0.321,2.465v42.436c0,2.144-0.786,4.002-2.357,5.573l-8.358,8.573l8.358,8.358c1.571,1.574,2.357,3.001,2.357,4.286v40.508c0,2.143-0.786,4.001-2.357,5.572L231.184,272.441z M213.396,181.139c0.428-0.429,0.643-0.927,0.643-1.5v-17.146c0-0.569-0.215-1.071-0.643-1.5l-3.644-3.644c-0.429-0.429-0.857-0.643-1.286-0.643h-22.504v27.433h24.433L213.396,181.139zM213.396,240.293c0.428-0.569,0.643-1.071,0.643-1.5v-17.36c0-0.569-0.215-1.071-0.643-1.5l-3.644-3.644c-0.429-0.429-0.857-0.644-1.286-0.644h-22.504v27.647h24.433L213.396,240.293z"/></g></symbol><symbol viewBox="0 0 50 50" id="icon-arrow-circle" xmlns="http://www.w3.org/2000/svg"><path fill="currentColor" d="M27.9 26.3H19c-.7 0-1.3-.5-1.3-1.2s.5-1.3 1.2-1.3H28l-.2-.2-2.4-2.4c-.4-.4-.5-.9-.3-1.4.2-.5.7-.8 1.2-.8.3 0 .6.2.9.4l4.8 4.8c.5.5.5 1.3 0 1.8l-4.8 4.8c-.5.5-1.3.5-1.8 0s-.5-1.3 0-1.8l2.4-2.4c.1-.2.1-.2.1-.3.1.1.1 0 0 0z"/><path fill="currentColor" d="M25 43c-9.9 0-18-8.1-18-18S15.1 7 25 7s18 8.1 18 18-8.1 18-18 18zm0-33c-8.3 0-15 6.7-15 15s6.7 15 15 15 15-6.7 15-15-6.7-15-15-15z"/></symbol><symbol viewBox="0 0 50 50" id="icon-arrow-circle-left" xmlns="http://www.w3.org/2000/svg"><path fill="currentColor" d="M22.1 26.3c0 .1 0 .1.1.3l2.4 2.4c.5.5.5 1.3 0 1.8s-1.3.5-1.8 0L18 26c-.5-.5-.5-1.3 0-1.8l4.8-4.8c.3-.2.6-.4.9-.4.5 0 1 .3 1.2.8s.1 1-.3 1.4l-2.4 2.4-.2.2h9.1c.7 0 1.2.6 1.2 1.3s-.6 1.2-1.3 1.2h-8.7-.2c-.1 0-.1.1 0 0z"/><path fill="currentColor" d="M7 25c0-9.9 8.1-18 18-18s18 8.1 18 18-8.1 18-18 18S7 34.9 7 25zm3 0c0 8.3 6.7 15 15 15s15-6.7 15-15-6.7-15-15-15-15 6.7-15 15z"/></symbol><symbol viewBox="0 0 50 50" id="icon-arrow-down" xmlns="http://www.w3.org/2000/svg"><path fill="currentColor" class="est0" d="M28.5 32.6c.1-.1.2-.3.4-.5l6.3-6.3c1.3-1.3 3.3-1.3 4.6 0s1.3 3.3 0 4.6c-4.2 4.2-8.3 8.4-12.5 12.5-1.3 1.4-3.3 1.4-4.7 0L10.2 30.5c-.6-.7-1-1.4-1-2.3 0-1.4.8-2.6 2-3.1 1.2-.6 2.6-.3 3.6.7l6.3 6.3c.2.1.4.3.6.5v-.8V14 9c0-1.9 1.6-3.3 3.5-3.2 1.8.1 3.1 1.5 3.1 3.4v23.3c.1.1.2.1.2.1z"/></symbol><symbol viewBox="0 0 50 50" id="icon-arrow-left" xmlns="http://www.w3.org/2000/svg"><path fill="currentColor" class="fst0" d="M17.3 28.4c.1.1.3.2.5.4l6.3 6.3c1.3 1.3 1.3 3.3 0 4.6-1.3 1.3-3.3 1.3-4.6 0-4.2-4.2-8.4-8.3-12.5-12.5-1.4-1.3-1.4-3.3 0-4.7l12.4-12.4c.7-.6 1.4-1 2.3-1 1.4 0 2.6.8 3.1 2 .6 1.2.3 2.6-.7 3.6L17.8 21c-.1.2-.3.4-.5.6h23.6c1.9 0 3.3 1.6 3.2 3.5-.1 1.8-1.5 3.1-3.4 3.1H17.4c-.1.1-.1.2-.1.2z"/></symbol><symbol viewBox="0 0 50 50" id="icon-arrow-right" xmlns="http://www.w3.org/2000/svg"><path fill="currentColor" class="gst0" d="M32.7 28.2H9.4c-1.9 0-3.3-1.3-3.4-3.1-.1-1.9 1.3-3.5 3.2-3.5h23.6c-.2-.2-.4-.4-.5-.6L26 14.7c-1-1-1.3-2.4-.7-3.6.5-1.2 1.7-2 3.1-2 .9 0 1.6.4 2.3 1l12.4 12.4c1.4 1.4 1.4 3.4 0 4.7-4.1 4.2-8.3 8.3-12.5 12.5-1.3 1.3-3.3 1.3-4.6 0-1.3-1.3-1.3-3.3 0-4.6l6.3-6.3c.2-.2.4-.3.5-.4 0 0 0-.1-.1-.2z"/></symbol><symbol viewBox="0 0 50 50" id="icon-arrow-up" xmlns="http://www.w3.org/2000/svg"><path fill="currentColor" class="hst0" d="M28.3 17.3v23.3c0 1.9-1.3 3.3-3.1 3.4-1.9.1-3.5-1.3-3.5-3.2v-5V18v-.8c-.2.2-.4.4-.6.5L14.8 24c-1 1-2.4 1.3-3.6.7-1.2-.5-2-1.7-2-3.1 0-.9.4-1.6 1-2.3L22.6 6.9c1.4-1.4 3.4-1.4 4.7 0 4.2 4.1 8.3 8.3 12.5 12.5 1.3 1.3 1.3 3.3 0 4.6s-3.3 1.3-4.6 0l-6.3-6.3c-.2-.2-.3-.4-.4-.5 0 0-.1 0-.2.1z"/></symbol><symbol viewBox="0 0 50 50" id="icon-cancel" xmlns="http://www.w3.org/2000/svg"><path fill="currentColor" d="M42.3 38L29.2 24.8 41.8 12l-4.3-4.3L25 20.5 12.5 7.8 8.2 12l12.5 12.8L7.7 38l4.3 4.2 13-13.1 13 13.2z"/></symbol><symbol viewBox="0 0 40 40" id="icon-cancel-circle" xmlns="http://www.w3.org/2000/svg"><path fill="currentColor" d="M32.7 32.7c-7 7-18.5 7-25.5 0s-7-18.5 0-25.5 18.5-7 25.5 0 7 18.5 0 25.5zM9.4 9.4c-5.9 5.9-5.9 15.3 0 21.2s15.3 5.9 21.2 0c5.9-5.9 5.9-15.3 0-21.2s-15.3-5.9-21.2 0z"/><path fill="currentColor" d="M13.6 11.6l-2.2 2.1 6.5 6.3-6.5 6.3 2.2 2.1 6.4-6.3 6.4 6.3 2.2-2.1-6.5-6.3 6.5-6.3-2.2-2.1-6.4 6.3z"/></symbol><symbol viewBox="0 0 50 50" id="icon-cart" xmlns="http://www.w3.org/2000/svg"><path fill="currentColor" class="kst0" d="M13.2 7.3c.4.1.8.2 1.1.4.3.2.5.4.6.7.2.4.4 2.2.5 2.7h25.2c.8 0 1.5.2 1.9 1 .3.6.2 1.2.1 1.8-.3 2.3-1.5 10.6-1.8 12.6-.1.9-.8 1.5-1.8 1.6H18.1c.1.6.2 2.4.3 3.1h18.4c.4 0 .8.1 1.2.2.8.4 1.1 1.2.9 2.1-.2.8-.9 1.4-1.7 1.5H17.3c-.7 0-1.3-.2-1.8-.7-.5-.6-.6-1.4-.7-2.1-.3-2.2-3.1-20.2-3.2-20.9-.6 0-2.5 0-2.9-.1-.7-.3-1.2-.9-1.4-1.6v-.8c.1-.4.3-.8.6-1.1.4-.3.8-.4 1.2-.5 1.4.1 2.8.1 4.1.1.2 0-1.3 0 0 0zm4.4 16.9h19.9c.4-3.1.9-6.2 1.3-9.4H16.1c.4 3.2 1 6.3 1.5 9.4 0 0-.5-3.1 0 0z"/><ellipse fill="currentColor" class="kst0" cx="19" cy="39.7" rx="3" ry="3"/><ellipse fill="currentColor" class="kst0" cx="35.8" cy="39.7" rx="3" ry="3"/></symbol><symbol viewBox="0 0 100 100" id="icon-chat" xmlns="http://www.w3.org/2000/svg"><path fill="currentColor" class="lst0" d="M81.4 65.4C83.7 60.8 85 55.5 85 50c0-19.3-15.7-35-35-35S15 30.7 15 50s15.7 35 35 35c5 0 9.7-1 13.9-2.9l19 2.9-1.4-19.8-.1.2zM36.6 52.9c-1.4 1.4-3.7 1.4-5.1 0-1.4-1.4-1.4-3.6 0-5s3.6-1.4 5 0c1.5 1.3 1.5 3.6.1 5zm15.9-.3c-1.4 1.4-3.7 1.4-5.1 0-1.4-1.4-1.4-3.6 0-5s3.6-1.4 5 0c1.5 1.4 1.5 3.7.1 5zm16 .3c-1.4 1.4-3.7 1.4-5.1 0-1.4-1.4-1.4-3.6 0-5s3.6-1.4 5 0c1.4 1.3 1.4 3.6.1 5z"/></symbol><symbol viewBox="0 0 100 100" id="icon-ipad" xmlns="http://www.w3.org/2000/svg"><path fill="currentColor" class="mst0" d="M70.2 15H29.8c-1.7 0-3.1 1.4-3.1 3.1v63.8c0 1.7 1.4 3.1 3.1 3.1h40.4c1.7 0 3.1-1.4 3.1-3.1V18.1c0-1.7-1.4-3.1-3.1-3.1zM50 81.7c-.9 0-1.6-.7-1.6-1.6 0-.9.7-1.6 1.6-1.6s1.6.7 1.6 1.6c0 .9-.7 1.6-1.6 1.6zm21.8-7.5c0 .9-.7 1.6-1.6 1.6H29.8c-.9 0-1.6-.7-1.6-1.6v-56c0-.9.7-1.6 1.6-1.6h40.4c.9 0 1.6.7 1.6 1.6v56z"/><path fill="currentColor" class="mst0" d="M31.2 47.1h37.6v10.8H31.2zM31.2 60.7h37.6v10.8H31.2zM31.2 19.9h37.6v10.8H31.2zM31.2 33.5h37.6v10.8H31.2z"/></symbol><symbol id="icon-lock" viewBox="0 0 100 100" xmlns="http://www.w3.org/2000/svg"><style>.nst0{fill:#454545}.st1{fill:none}</style><path fill="currentColor" class="nst0" d="M43.9 85c-13.8-.1-25.7-9.8-28.4-23.4-3.1-15.4 6.8-30.5 22.2-33.8 3.1-.7 6.3-.8 9.5-.4.3 0 .5-.1.7-.3l6.8-6.8c3.9-3.9 8.6-5.6 14-5.3 4.2.3 7.9 2 10.9 4.9 3 2.9 4.8 6.3 5.3 10.4C85.6 36 84 41 80 45.1c-2.4 2.5-4.8 4.8-7.2 7.3-.2.2-.3.4-.3.7.7 8.1-1.4 15.4-6.7 21.6-4.6 5.4-10.4 8.7-17.5 9.8-1.5.3-3 .4-4.4.5zm-.1-6c12.6 0 23-10.2 23-22.8 0-12.8-10.3-23.2-23-23.2s-22.9 10.2-23 22.9c0 12.8 10.3 23.1 23 23.1zm27.1-33c.2-.1.3-.2.4-.4l4.4-4.4c2.9-2.9 4-6.4 3.4-10.5-.9-5.4-5.8-9.7-11.3-9.9-3.4-.1-6.4 1.1-8.8 3.5l-4.4 4.4c-.1.1-.2.2-.3.4C62.1 32.4 67.7 38 70.9 46z"/><path fill="currentColor" class="nst0" d="M43.9 47.1c4.9 0 8.9 4 8.9 8.9s-4 8.9-8.9 8.8c-4.9 0-8.9-4-8.9-8.9.1-4.9 4-8.8 8.9-8.8zm0 2.9c-3.3 0-6 2.7-6 6s2.7 6 6 6 5.9-2.7 5.9-5.9c.1-3.4-2.6-6.1-5.9-6.1zM28 54c1.2 0 2.2 1 2.2 2.2 0 1.2-1 2.2-2.2 2.2-1.2 0-2.2-1-2.2-2.2 0-1.3 1-2.2 2.2-2.2zM59.4 58.4c-1.2 0-2.2-.9-2.2-2.2 0-1.2 1-2.2 2.2-2.2 1.2 0 2.2 1 2.2 2.2 0 1.2-.9 2.2-2.2 2.2zM43.7 42.5c-1.2 0-2.2-.9-2.2-2.2 0-1.2 1-2.2 2.2-2.2 1.2 0 2.2 1 2.2 2.2 0 1.3-.9 2.2-2.2 2.2zM32.8 47.2c-1.2 0-2.2-1-2.2-2.2 0-1.2 1-2.2 2.2-2.2 1.2 0 2.2 1 2.2 2.2 0 1.3-1 2.2-2.2 2.2zM57.2 67.3c0 1.2-1 2.2-2.2 2.2-1.2 0-2.2-1-2.2-2.2 0-1.2 1-2.2 2.2-2.2 1.2 0 2.2.9 2.2 2.2zM43.7 69.6c1.2 0 2.2 1 2.2 2.2 0 1.2-1 2.2-2.2 2.2-1.2 0-2.2-1-2.2-2.2 0-1.2 1-2.2 2.2-2.2zM32.9 65c1.2 0 2.2 1 2.2 2.2 0 1.2-1 2.2-2.2 2.2-1.2 0-2.2-1-2.2-2.2 0-1.2 1-2.2 2.2-2.2zM55.1 42.8c1.2 0 2.2 1 2.2 2.2 0 1.2-1 2.2-2.2 2.2-1.2 0-2.2-1-2.2-2.2 0-1.3 1-2.2 2.2-2.2z"/></symbol><symbol viewBox="0 0 50 50" id="icon-login" xmlns="http://www.w3.org/2000/svg"><path fill="currentColor" class="ost0" d="M25 36.1c-1.5 0-3-.6-4.1-1.7-2.2-2.2-2.2-5.9 0-8.1 1.1-1.1 2.5-1.7 4.1-1.7 1.5 0 3 .6 4.1 1.7 1.1 1.1 1.7 2.5 1.7 4.1 0 1.5-.6 3-1.7 4.1-1.1 1-2.6 1.6-4.1 1.6zm0-8.8c-.8 0-1.6.3-2.2.9-1.2 1.2-1.2 3.2 0 4.4.6.6 1.4.9 2.2.9.8 0 1.6-.3 2.2-.9.6-.6.9-1.3.9-2.2 0-.8-.3-1.6-.9-2.2-.6-.6-1.4-.9-2.2-.9z"/><path fill="currentColor" class="ost0" d="M39.3 29.3c-.3-4.1-2.1-7.4-5.2-10-.1-.1-.2-.2-.2-.4v-5.1c-.1-2.9-1.2-5.2-3.5-6.9-1.6-1.3-3.5-1.8-5.5-1.8-2.1 0-4 .7-5.6 2.1-2 1.8-3.1 4.1-3.1 6.8v4.8c0 .1 0 .3-.2.4-1.3 1-2.3 2.2-3.2 3.5-4.2 6.6-2.4 15.4 4.1 19.8a14.4 14.4 0 0 0 18.2-1.8c.5-.6 1-1.1 1.4-1.7 2.2-2.9 3.1-6.1 2.8-9.7zM19.2 14c0-1.7.6-3.2 1.9-4.3 2-1.9 5.2-2.1 7.4-.5C30.1 10.3 31 12 31 14v3.4c-3.9-1.7-7.9-1.7-11.8-.1v-.2V14zm13.9 24.6c-4.5 4.5-11.8 4.5-16.2 0-4.4-4.5-4.4-11.7 0-16.2 4.5-4.5 11.8-4.5 16.2.1 4.5 4.4 4.4 11.6 0 16.1z"/></symbol><symbol viewBox="0 0 100 100" id="icon-map" xmlns="http://www.w3.org/2000/svg"><path fill="currentColor" class="pst0" d="M31.8 85.6c.7.3 1.5.3 2.2 0l14.9-7.2c.7-.3 1.5-.3 2.2 0L66 85.6c.7.3 1.5.3 2.2 0L85.9 77c1-.5 1.6-1.5 1.6-2.6V17.1c0-2.1-2-3.5-3.8-2.6L68.2 22c-.7.3-1.5.3-2.2 0l-14.9-7.2c-.7-.3-1.5-.3-2.2 0L34 21.9c-.7.3-1.5.3-2.2 0l-15.5-7.5c-1.8-.9-3.8.5-3.8 2.6v57.3c0 1.1.6 2.2 1.6 2.6l17.7 8.7zm35.9-55.3c0-.3.2-.5.4-.7L80 23.9c.4-.2 1 .1 1 .7v20.9c0 .3-.2.5-.4.7l-11.9 5.7c-.4.2-1-.1-1-.7V30.3zm0 24.2c0-.3.2-.5.4-.7L80 48.1c.4-.2 1 .1 1 .7v22.5c0 .3-.2.5-.4.7l-11.9 5.7c-.4.2-1-.1-1-.7V54.5zM50.6 23.3c0-.5.5-.9 1-.7l14.3 6.9c.2.1.4.4.4.7v4.6l-1.8-1c-.3-.2-.7 0-.9.3-.2.4 0 .8.3 1l2.4 1.3v14.7c0 .5-.5.9-1 .7L51 44.9c-.2-.1-.4-.4-.4-.7V23.3zm0 24.2c0-.5.5-.9 1-.7l14.3 6.9c.2.1.4.4.4.7v22.5c0 .5-.5.9-1 .7l-14.3-7c-.2-.1-.4-.4-.4-.7V47.5zm-17-17.2c0-.3.2-.5.4-.7l14.4-6.9c.4-.2 1 .1 1 .7v20.9c0 .3-.2.5-.4.7l-14.4 6.9c-.4.2-1-.1-1-.7V30.3zm0 24.1c0-.3.2-.5.4-.7l14.4-6.9c.4-.2 1 .1 1 .7V70c0 .3-.2.5-.4.7l-14.4 6.9c-.4.2-1-.1-1-.7V54.4zM19.1 24.6c0-.5.5-.9 1-.7l11.8 5.7c.2.1.4.4.4.7v21c0 .5-.5.9-1 .7l-11.8-5.7c-.2-.1-.4-.4-.4-.7v-21zm0 24.1c0-.5.5-.9 1-.7l5.2 2.5v2.6c0 .4.3.7.7.7.4 0 .7-.3.7-.7v-2l5.3 2.5c.2.1.4.4.4.7V67l-2.1 1c-.4.1-.5.5-.4.9.1.3.4.5.6.5h.2c.1 0 .2-.1.2-.1l1.4-.7V77c0 .5-.5.9-1 .7L19.5 72c-.2-.1-.4-.4-.4-.7V48.7z"/><path fill="currentColor" class="pst0" d="M22.4 40.5l1.3 1.4 2.2-2.4 2.2 2.4 1.3-1.4-2.2-2.3 2.2-2.4-1.3-1.4-2.2 2.4-2.2-2.4-1.3 1.4 2.2 2.4zM72.1 66.8l2.2-2.4 2.2 2.4 1.4-1.4-2.3-2.4 2.3-2.4-1.4-1.4-2.2 2.4-2.2-2.4-1.3 1.4L73 63l-2.2 2.4zM59.1 61.9c.1 0 .2 0 .3-.1.3-.2.4-.6.2-1s-.4-.9-.4-1.4v-1c0-.4-.3-.7-.7-.7-.4 0-.7.3-.7.7v1c0 .7.2 1.5.5 2.1.4.3.6.4.8.4zM41.4 62.2c.1 0 .1 0 0 0 .4 0 .7-.3.7-.7v-3c0-.4-.3-.7-.7-.7-.4 0-.7.3-.7.7V61.3c.1.5.4.9.7.9zM41.5 47.7c.4 0 .7-.3.7-.7v-2.9c0-.4-.3-.7-.7-.7-.4 0-.7.3-.7.7V47c0 .4.3.7.7.7zM41.5 40.5c.4 0 .7-.3.7-.7v-.5c0-.6.2-1.3.6-1.8.2-.3.2-.8-.1-1-.3-.2-.7-.2-.9.1-.6.8-.9 1.7-.9 2.6v.5c-.1.4.2.8.6.8zM41.5 55c.4 0 .7-.3.7-.7v-2.9c0-.4-.3-.7-.7-.7-.4 0-.7.3-.7.7v2.9c0 .3.3.7.7.7zM36.6 66.5c.1 0 .2 0 .3-.1l2.5-1.1c.3-.2.5-.6.4-.9-.1-.4-.5-.5-.9-.4l-2.5 1.1c-.3.2-.5.6-.4.9.1.3.3.5.6.5zM26.7 68.3c.2 0 .3-.1.4-.2.3-.3.3-.7.1-1-.4-.5-.6-1.1-.6-1.8v-.4c0-.4-.3-.7-.7-.7-.4 0-.7.3-.7.7v.4c0 1 .3 2 .9 2.8.2.1.4.2.6.2zM25.9 61.2c.4 0 .7-.3.7-.7v-2.9c0-.4-.3-.7-.7-.7-.4 0-.7.3-.7.7v2.9c0 .4.3.7.7.7zM25.9 42.3c-.4 0-.7.3-.7.7v3c0 .4.3.7.7.7.4 0 .7-.3.7-.7v-2.9c0-.4-.3-.8-.7-.8zM45.7 35.6c.1 0 .2 0 .3-.1l2.5-1.2c.3-.2.5-.6.3-1s-.6-.5-.9-.4l-2.5 1.2c-.3.2-.5.6-.3 1 .1.3.3.5.6.5zM68.7 45.4h.3c1 0 1.9-.4 2.7-1.1.3-.3.3-.7 0-1-.3-.3-.7-.3-1-.1-.5.5-1.3.8-2 .7-.4 0-.7.3-.7.7 0 .5.3.8.7.8zM69.5 63.7c.4 0 .7-.3.7-.7 0-.4-.3-.7-.7-.7h-.1c-.4 0-.6.3-.6.7-.1.4.3.7.7.7zM59.4 43.3c-.3-.2-.7 0-.9.3-.3.6-.4 1.3-.4 2v1.2c0 .4.3.7.7.7.4 0 .7-.3.7-.7v-1.2c0-.5.1-.9.3-1.3 0-.4-.1-.8-.4-1zM69.9 38.5l.3.2c.6.3 1 .8 1.3 1.5.1.3.4.5.6.5.1 0 .2 0 .3-.1.3-.1.5-.6.4-.9-.4-1-1-1.7-1.9-2.2l-.3-.2c-.3-.2-.7 0-.9.3-.3.2-.1.7.2.9zM51.9 32.6c.1 0 .2 0 .3-.1l2.5-1.2c.3-.2.5-.6.3-1-.2-.3-.6-.5-1-.3l-2.5 1.2c-.3.2-.5.6-.3 1 .2.2.4.4.7.4zM62.6 63.7h2.7c.4 0 .7-.3.7-.7 0-.4-.3-.7-.7-.7h-2.7c-.4 0-.7.3-.7.7 0 .4.3.7.7.7zM58.7 54.8c.4 0 .7-.3.7-.7v-2.9c0-.4-.3-.7-.7-.7-.4 0-.7.3-.7.7V54c0 .4.3.8.7.8zM62.4 42.8c.3 0 .5.1.8.2l1.6.8c.1 0 .2.1.3.1.3 0 .5-.2.6-.4.2-.4 0-.8-.3-1l-1.6-.8c-.4-.2-.8-.3-1.2-.4-.4-.1-.7.2-.8.6-.1.5.2.8.6.9zM57.9 31.8l2.4 1.3c.1.1.2.1.3.1.2 0 .5-.1.6-.4.2-.4 0-.8-.3-1l-2.4-1.3c-.3-.2-.7 0-.9.3-.2.4-.1.9.3 1z"/></symbol><symbol viewBox="0 0 100 100" id="icon-marker" xmlns="http://www.w3.org/2000/svg"><path fill="currentColor" class="qst0" d="M70.9 23.6c-11.5-11.5-30.2-11.5-41.7 0s-11.5 30.2 0 41.7l19.6 19.6s18.8-16.3 22.1-19.6c11.5-11.5 11.5-30.1 0-41.7zM50 56.1c-6.9 0-12.4-5.6-12.4-12.4S43.1 31.3 50 31.3s12.4 5.6 12.4 12.4S56.9 56.1 50 56.1z"/><circle fill="currentColor" class="qst0" cx="50" cy="43.7" r="7.9"/></symbol><symbol viewBox="0 0 100 100" id="icon-phone" xmlns="http://www.w3.org/2000/svg"><path fill="currentColor" class="rst0" d="M18.6 42.3c.7.4 1.5.6 2.4.3l12.8-3.2c1.4-.3 2.4-1.9 2.5-3.3v-4.8c0-.3.2-.5.3-.8l.6-.4c3.5-2.3 9.2-2.1 13.2-2.1 4 .1 8.9.2 12.3 2.6.2.2.3.5.4.8v4.1c0 1.4.9 2.9 2.3 3.3l12.9 4.1c1.8.4 3.5-.5 3.5-2.5l.1-11.1c.1-1.1-.4-2.4-1.1-3.3-8-8-20.1-10-31-10-11.5 0-22.3 2.1-31.1 9.7-.7.9-1.2 2.1-1.1 3.3l-.1 11c0 .9.3 1.7 1.1 2.3zM50 46.5c-20.7 0-37.5 16.8-37.5 37.5h75c0-20.7-16.8-37.5-37.5-37.5zm-.3 31c-6.7 0-12.2-5.5-12.2-12.2S43 53.1 49.7 53.1s12.2 5.5 12.2 12.2-5.5 12.2-12.2 12.2z"/><ellipse fill="currentColor" transform="rotate(-23.317 49.705 65.3)" class="rst0" cx="49.7" cy="65.3" rx="4.1" ry="4.1"/></symbol><symbol viewBox="0 0 50 50" id="icon-plus" xmlns="http://www.w3.org/2000/svg"><path fill="currentColor" class="sst0" d="M42.5 22.4H27.6V7.5h-5.2v14.9H7.5v5.2h14.9v14.9h5.2V27.6h14.9z"/></symbol><symbol viewBox="-273 379 36 36" id="icon-plus-circle" xmlns="http://www.w3.org/2000/svg"><path fill="currentColor" d="M-255 415c-9.9 0-18-8.1-18-18s8.1-18 18-18 18 8.1 18 18-8.1 18-18 18zm0-33c-8.3 0-15 6.7-15 15s6.7 15 15 15 15-6.7 15-15-6.7-15-15-15z"/><path fill="currentColor" d="M-253.6 386.5h-3l.1 9-9-.1v3l9 .1.1 9h3l-.1-9 9 .1v-3l-9-.1z"/></symbol><symbol viewBox="0 0 100 100" id="icon-safe" xmlns="http://www.w3.org/2000/svg"><path fill="currentColor" class="ust0" d="M59.5 53.5c-.4-.2-.8 0-1 .4l-.3.6c-.2.4-.1.8.3 1 .1.1.2.1.3.1.3 0 .5-.1.6-.4.1-.2.2-.4.3-.7.3-.4.1-.8-.2-1zM55.8 57.4c-.2.1-.3.3-.5.4-.3.2-.4.7-.2 1 .1.2.4.3.6.3.1 0 .3 0 .4-.1.2-.1.4-.3.6-.4.3-.2.4-.7.1-1-.3-.4-.7-.4-1-.2zM58.9 46c.1 0 .2 0 .3-.1.4-.2.5-.6.3-1-.1-.2-.2-.4-.4-.7-.2-.3-.7-.5-1-.2-.3.2-.4.7-.2 1l.3.6c.2.3.5.4.7.4zM40 48.9h.1c.3 0 .6-.2.7-.6 0-.2.1-.4.1-.6.1-.4-.1-.8-.5-.9-.4-.1-.8.1-.9.5-.1.2-.1.5-.2.7 0 .5.3.8.7.9zM45.8 41.5c.1 0 .2 0 .3-.1.2-.1.4-.2.6-.2.4-.1.6-.6.4-.9-.1-.4-.6-.6-.9-.4-.2.1-.5.2-.7.3-.4.2-.5.6-.4 1 .2.1.4.3.7.3zM50.5 40.6c.2 0 .4 0 .6.1h.1c.4 0 .7-.3.7-.6.1-.4-.2-.8-.6-.8-.2 0-.5-.1-.7-.1-.4 0-.7.3-.8.7 0 .3.3.7.7.7zM59.3 49.4v.7l.7.1.7-.1v-.8c0-.4-.4-.7-.8-.7-.3 0-.6.4-.6.8zM43 56.2c-.3-.3-.7-.3-1-.1-.3.3-.3.7-.1 1 .2.2.3.4.5.5.1.1.3.2.5.2s.4-.1.5-.2c.3-.3.3-.7 0-1-.2-.1-.3-.2-.4-.4zM42.6 44.2c.1-.2.3-.3.4-.5.3-.3.2-.8-.1-1-.3-.3-.8-.2-1 .1-.2.2-.3.4-.5.6-.2.3-.2.8.1 1 .1.1.3.2.4.2.4-.1.6-.2.7-.4zM40.9 52.2c-.1-.4-.5-.6-.9-.5-.4.1-.6.5-.5.9.1.2.1.5.2.7.1.3.4.5.7.5h.2c.4-.1.6-.5.5-.9-.1-.3-.2-.5-.2-.7zM51.7 59.3c-.2 0-.4.1-.6.1-.4 0-.7.4-.6.8 0 .4.4.6.7.6h.1c.3 0 .5-.1.7-.1.4-.1.6-.5.6-.8-.2-.4-.5-.7-.9-.6zM54.8 41.9c.2.1.4.2.5.4.1.1.3.1.4.1.2 0 .5-.1.6-.3.2-.3.1-.8-.2-1-.2-.1-.4-.3-.6-.4-.3-.2-.8-.1-1 .3-.2.3-.1.7.3.9zM47.2 59c-.2-.1-.4-.1-.6-.2-.4-.1-.8 0-.9.4-.1.4 0 .8.4.9.2.1.5.2.7.2h.2c.3 0 .6-.2.7-.5.1-.3-.1-.7-.5-.8z"/><path fill="currentColor" class="ust0" d="M12.5 84.1c0 1.4 1.1 2.6 2.5 2.6h70c1.4 0 2.5-1.1 2.5-2.6V15.9c0-1.4-1.1-2.6-2.5-2.6H15c-1.4 0-2.5 1.1-2.5 2.6V19c0 1.4 1.1 2.6 2.5 2.6h63c.7 0 1.3.6 1.3 1.3v54.2c0 .7-.6 1.3-1.3 1.3H15c-1.4 0-2.5 1.1-2.5 2.6v3.1z"/><ellipse fill="currentColor" class="ust0" cx="50" cy="50" rx="6.5" ry="6.5"/><path fill="currentColor" class="ust0" d="M61.2 69.3v2.3c0 .7.6 1.2 1.2 1.2l10.6-.6c.6 0 1.1-.5 1.1-1.2v-1c0-.6-.5-1.1-1.1-1.2l-10.6-.6c-.6-.1-1.2.4-1.2 1.1zM66.1 49.2c-.4-8.5-7.4-15.3-16-15.3C41.2 33.8 34 41.1 34 50c0 8.9 7.2 16.2 16.1 16.2 8.3 0 15.1-6.3 16-14.4h.1l4-1v-.7l-4.1-.9zM50 64.2c-7.8 0-14.1-6.4-14.1-14.2 0-7.8 6.3-14.2 14.1-14.2S64.1 42.2 64.1 50c0 7.8-6.3 14.2-14.1 14.2zM20.5 24.8h-6.3c-.7 0-1.3.6-1.3 1.3v19.8c0 .7.6 1.3 1.3 1.3h6.3c.7 0 1.3-.6 1.3-1.3v-5.5c0-.6.4-1.1 1-1.2l4.1-1.1c.6-.1 1-.7 1-1.2v-3c0-.6-.4-1.1-1-1.2l-4.1-1.1c-.6-.1-1-.7-1-1.2v-4.2c0-.8-.6-1.4-1.3-1.4zM12.9 74.2c0 .7.6 1.3 1.3 1.3h6.3c.7 0 1.3-.6 1.3-1.3V70c0-.6.4-1.1 1-1.2l4.1-1.1c.6-.1 1-.7 1-1.2v-3c0-.6-.4-1.1-1-1.2l-4.1-1.1c-.6-.1-1-.7-1-1.2v-5.5c0-.7-.6-1.3-1.3-1.3h-6.3c-.7 0-1.3.6-1.3 1.3v19.7z"/></symbol><symbol id="icon-search" viewBox="0 0 50 50" xmlns="http://www.w3.org/2000/svg"><style>.vst0{clip-path:url(#vSVGID_2_);fill:#4e4c4d}</style><defs><path fill="currentColor" id="vSVGID_1_" d="M7.5 3.4h35.1v43.1H7.5z"/></defs><clipPath fill="currentColor" id="vSVGID_2_"><use xlink:href="#vSVGID_1_" overflow="visible"/></clipPath><path fill="currentColor" class="vst0" d="M29.1 27.6c-4.8 2.8-11 1.3-13.9-3.3-2.9-4.6-1.3-10.6 3.4-13.4 4.8-2.8 11-1.3 13.9 3.3 2.9 4.6 1.4 10.6-3.4 13.4m12.8 13l-6.4-10.3c5.1-5 6.3-12.9 2.3-19.2-4.7-7.5-14.7-9.9-22.5-5.4-7.7 4.5-10.1 14.2-5.5 21.7 3.9 6.3 11.7 9 18.7 7L35 44.7c1.2 1.9 3.7 2.5 5.6 1.3 1.9-1.1 2.5-3.5 1.3-5.4"/></symbol><symbol viewBox="0 0 100 100" id="icon-steering-wheel" xmlns="http://www.w3.org/2000/svg"><path fill="currentColor" class="wst0" d="M76.3 23.7c-14.7-14.8-38.5-14.9-53-.4s-14.4 38.3.4 53c14.7 14.7 38.5 14.9 53.1.4 14.4-14.5 14.3-38.3-.5-53zM23.5 64.1c-6.3-11.5-4.7-26.1 4.9-35.7 9.6-9.6 24.2-11.2 35.7-4.9 1.7.9 2.1 3.2.7 4.6l-7.2 7.2c-.4.4-1.1.5-1.7.2-5.7-2.8-12.8-1.8-17.5 2.9s-5.6 11.7-2.9 17.5c.3.6.2 1.2-.2 1.7l-7.2 7.2c-1.4 1.4-3.7 1.1-4.6-.7zm33-7.6c-3.9 3.9-10.2 3.8-14.1-.1-3.9-3.9-4-10.2-.1-14.1s10.2-3.8 14.1.1c3.9 4 4 10.3.1 14.1zm8 20.2c-8.9 4.7-19.7 4.6-28.7-.2-1.7-.9-2.1-3.2-.7-4.6l7.7-7.7c.4-.4 1-.5 1.5-.3 3.6 1.3 7.6 1.3 11.1-.2.6-.2 1.2-.1 1.6.3l8.1 8.1c1.5 1.4 1.2 3.7-.6 4.6zm7.6-11.5L64 57.1c-.4-.4-.5-1.1-.3-1.6 1.4-3.5 1.5-7.5.2-11.1-.2-.5-.1-1.1.3-1.5l7.7-7.7c1.4-1.4 3.7-1 4.6.7 4.9 9 5 19.8.2 28.7-.9 1.7-3.2 2-4.6.6z"/><path fill="currentColor" class="wst0" d="M44.1 44.1c-2.9 2.9-2.9 7.7.1 10.7 3 3 7.8 3 10.7.1s2.9-7.7-.1-10.7c-3-3-7.8-3.1-10.7-.1zm9.4 9.4c-2.2 2.2-5.7 2.1-7.9-.1s-2.2-5.8-.1-7.9c2.2-2.2 5.7-2.1 7.9.1 2.2 2.1 2.2 5.7.1 7.9z"/></symbol><symbol viewBox="0 0 100 100" id="icon-tools" xmlns="http://www.w3.org/2000/svg"><path fill="currentColor" class="xst0" d="M31.2 44.8l9-9c2.4-2.4 2.4-6.3 0-8.7L28 17.1l-4.2 4.2 4.6 4.6c2.4 2.4 3.1 5.6.7 8-2.4 2.4-5.6 1.7-8-.7l-4.6-4.6-4.1 4.1 10 12.1c2.5 2.4 6.4 2.4 8.8 0zM85.7 26.5l-8.3-8.3c-2.4-2.4-6.3-2.4-8.7 0l-8.3 8.3c-2.4 2.4-2.4 6.3 0 8.7l8.3 8.3c2.4 2.4 6.3 2.4 8.7 0l8.3-8.3c2.4-2.4 2.4-6.3 0-8.7zm-10 3.2l-3.8 3.8c-.6.6-1.6.6-2.2 0-.6-.6-.6-1.6 0-2.2l3.8-3.8c.6-.6 1.6-.6 2.2 0 .6.6.6 1.6 0 2.2z"/><g><path fill="currentColor" class="xst0" d="M77 71.5L59.4 54.3l8.5-8.6-9.6-9.6-8.8 8.6-7.6-7.4-9.6 9.6 7.3 7.5-16.4 16c-2.4 2.4-2.4 6.3 0 8.7l1.6 1.6c2.4 2.4 6.3 2.4 8.7 0l16-16.3 17.2 17.5c2.4 2.4 6.3 2.4 8.7 0l1.6-1.6c2.4-2.4 2.4-6.4 0-8.8zM31.9 77c-1.4 1.4-3.6 1.4-5 0s-1.4-3.6 0-5 3.6-1.4 5 0c1.4 1.3 1.4 3.6 0 5zm41.4 1.2c-1.4 1.4-3.6 1.4-5 0s-1.4-3.6 0-5 3.6-1.4 5 0c1.3 1.4 1.3 3.6 0 5z"/></g></symbol></svg>